<svg width="66" height="55" viewBox="0 0 66 55" fill="none" xmlns="http://www.w3.org/2000/svg">
    <g clip-path="url(#clip0_8_189)">
        <path
            d="M57.7123 36.2662L54.1084 36.168L29.3879 21.8545L4.36826 36.168H0.891937V38.157L29.387 54.6559L57.7123 38.2552V36.2662Z"
            fill="#191C20" stroke="#191C20" stroke-width="0.5" stroke-linecap="round"
            stroke-linejoin="round" />
        <path d="M57.7123 36.2662L29.387 52.6669L0.891937 36.168L29.3879 19.8655L57.7123 36.2662Z"
            fill="#191C20" stroke="#191C20" stroke-width="0.5" stroke-linecap="round"
            stroke-linejoin="round" />
        <path d="M15.4618 36.2661L9.12539 39.8956L2.69644 36.1733L9.00323 32.5655L15.4618 36.2661Z"
            fill="white" stroke="#191C20" stroke-width="0.3" stroke-linecap="round"
            stroke-linejoin="round" />
        <path d="M22.6561 32.143L16.2038 28.4459L22.3166 24.9479L28.7653 28.6432L22.6561 32.143Z"
            fill="white" stroke="#191C20" stroke-width="0.3" stroke-linecap="round"
            stroke-linejoin="round" />
        <path d="M29.3087 35.9544L23.1996 32.4546L29.3087 28.954L35.417 32.4546L29.3087 35.9544Z"
            fill="white" stroke="#191C20" stroke-width="0.3" stroke-linecap="round"
            stroke-linejoin="round" />
        <path d="M35.7952 47.9167L29.3869 51.6273L22.8995 47.8708L29.3087 44.1998L35.7952 47.9167Z"
            fill="white" stroke="#191C20" stroke-width="0.3" stroke-linecap="round"
            stroke-linejoin="round" />
        <path d="M35.7952 24.6155L29.3087 28.3315L22.86 24.6371L29.3851 20.9041L35.7952 24.6155Z"
            fill="white" stroke="#191C20" stroke-width="0.3" stroke-linecap="round"
            stroke-linejoin="round" />
        <path d="M35.9604 39.7659L29.8513 36.2661L35.9604 32.7654L42.0687 36.2661L35.9604 39.7659Z"
            fill="white" stroke="#191C20" stroke-width="0.3" stroke-linecap="round"
            stroke-linejoin="round" />
        <path d="M55.9156 36.2661L49.5693 39.9406L43.1556 36.2661L49.5684 32.5907L55.9156 36.2661Z"
            fill="white" stroke="#191C20" stroke-width="0.3" stroke-linecap="round"
            stroke-linejoin="round" />
        <path
            d="M35.7961 47.9167H35.7952M22.3166 24.9479L28.7653 28.6432L22.6561 32.143L16.2038 28.4459M29.3087 28.954L23.1996 32.4546L29.3087 35.9544L35.417 32.4546L29.3087 28.954ZM35.9604 32.7654L29.8513 36.2661L35.9604 39.7659L42.0687 36.2661L35.9604 32.7654Z"
            stroke="#191C20" stroke-width="0.3" stroke-linecap="round" stroke-linejoin="round" />
        <path d="M42.4109 28.4468L35.9604 32.143L29.8513 28.6432L36.335 24.9281L42.4109 28.4468Z"
            fill="white" stroke="#191C20" stroke-width="0.3" stroke-linecap="round"
            stroke-linejoin="round" />
        <path d="M49.0276 32.2781L42.6122 35.9544L36.5039 32.4546L42.9517 28.7594L49.0276 32.2781Z"
            fill="white" stroke="#191C20" stroke-width="0.3" stroke-linecap="round"
            stroke-linejoin="round" />
        <path
            d="M49.0285 40.2541L42.9526 43.7728H42.9517L36.503 40.0767L42.6122 36.5769L49.0285 40.2541Z"
            fill="white" stroke="#191C20" stroke-width="0.3" stroke-linecap="round"
            stroke-linejoin="round" />
        <path d="M42.4118 44.0854L36.3359 47.6032L29.8513 43.8881L35.9604 40.3884L42.4118 44.0854Z"
            fill="white" stroke="#191C20" stroke-width="0.3" stroke-linecap="round"
            stroke-linejoin="round" />
        <path d="M35.417 40.0767L29.3087 43.5773L23.1996 40.0767L29.3087 36.5769L35.417 40.0767Z"
            fill="white" stroke="#191C20" stroke-width="0.3" stroke-linecap="round"
            stroke-linejoin="round" />
        <path d="M28.7653 36.2661L22.657 39.7659L16.5478 36.2661L22.6561 32.7654L28.7653 36.2661Z"
            fill="white" stroke="#191C20" stroke-width="0.3" stroke-linecap="round"
            stroke-linejoin="round" />
        <path d="M22.1135 32.4546L16.0044 35.9544L9.54668 32.2538L15.6594 28.7567L22.1135 32.4546Z"
            fill="white" stroke="#191C20" stroke-width="0.3" stroke-linecap="round"
            stroke-linejoin="round" />
        <path d="M28.7653 43.8881L22.3597 47.5582L16.2828 44.0404L22.657 40.3884L28.7653 43.8881Z"
            fill="white" stroke="#191C20" stroke-width="0.3" stroke-linecap="round"
            stroke-linejoin="round" />
        <path d="M22.1135 40.0767L15.743 43.7269L9.66615 40.2091L16.0044 36.5769L22.1135 40.0767Z"
            fill="white" stroke="#191C20" stroke-width="0.3" stroke-linecap="round"
            stroke-linejoin="round" />
        <path
            d="M25.4632 1.37392V24.594C25.4632 25.4913 27.1843 26.2191 29.3078 26.2191C31.4313 26.2191 33.1524 25.4913 33.1524 24.594V1.37392H25.4623H25.4632Z"
            fill="#5A6CFE" stroke="#191C20" stroke-width="0.5" stroke-miterlimit="10"
            stroke-linecap="round" stroke-linejoin="round" />
        <path
            d="M29.3075 3.08642C31.4308 3.08642 33.1521 2.35883 33.1521 1.4613C33.1521 0.563772 31.4308 -0.163818 29.3075 -0.163818C27.1842 -0.163818 25.4629 0.563772 25.4629 1.4613C25.4629 2.35883 27.1842 3.08642 29.3075 3.08642Z"
            fill="#5A6CFE" stroke="#191C20" stroke-width="0.5" stroke-miterlimit="10"
            stroke-linecap="round" stroke-linejoin="round" />
        <path
            d="M32.2866 10.5282V28.4207C32.2866 29.318 34.0077 30.0458 36.1312 30.0458C38.2548 30.0458 39.9759 29.318 39.9759 28.4207V10.5282H32.2857H32.2866Z"
            fill="#5A6CFE" stroke="#191C20" stroke-width="0.5" stroke-miterlimit="10"
            stroke-linecap="round" stroke-linejoin="round" />
        <path
            d="M36.1309 12.1533C38.2543 12.1533 39.9756 11.4257 39.9756 10.5282C39.9756 9.63067 38.2543 8.90308 36.1309 8.90308C34.0076 8.90308 32.2863 9.63067 32.2863 10.5282C32.2863 11.4257 34.0076 12.1533 36.1309 12.1533Z"
            fill="#5A6CFE" stroke="#191C20" stroke-width="0.5" stroke-miterlimit="10"
            stroke-linecap="round" stroke-linejoin="round" />
        <path
            d="M38.5674 19.078V32.3916C38.5674 33.2888 40.2885 34.0167 42.412 34.0167C44.5355 34.0167 46.2566 33.2888 46.2566 32.3916V19.078H38.5665H38.5674Z"
            fill="#5A6CFE" stroke="#191C20" stroke-width="0.5" stroke-miterlimit="10"
            stroke-linecap="round" stroke-linejoin="round" />
        <path
            d="M42.4117 20.904C44.535 20.904 46.2563 20.1765 46.2563 19.2789C46.2563 18.3814 44.535 17.6538 42.4117 17.6538C40.2884 17.6538 38.5671 18.3814 38.5671 19.2789C38.5671 20.1765 40.2884 20.904 42.4117 20.904Z"
            fill="#5A6CFE" stroke="#191C20" stroke-width="0.5" stroke-miterlimit="10"
            stroke-linecap="round" stroke-linejoin="round" />
        <path
            d="M45.6546 29.2125V35.9229C45.6546 36.8201 47.3757 37.548 49.4992 37.548C51.6227 37.548 53.3438 36.8201 53.3438 35.9229V29.2125H45.6537H45.6546Z"
            fill="#5A6CFE" stroke="#191C20" stroke-width="0.5" stroke-miterlimit="10"
            stroke-linecap="round" stroke-linejoin="round" />
        <path
            d="M49.4989 30.8376C51.6223 30.8376 53.3435 30.1101 53.3435 29.2125C53.3435 28.315 51.6223 27.5874 49.4989 27.5874C47.3756 27.5874 45.6543 28.315 45.6543 29.2125C45.6543 30.1101 47.3756 30.8376 49.4989 30.8376Z"
            fill="#5A6CFE" stroke="#191C20" stroke-width="0.5" stroke-miterlimit="10"
            stroke-linecap="round" stroke-linejoin="round" />
        <path
            d="M14.0661 33.1308L4.91695 42.2799C4.6092 42.5877 4.93911 43.4153 5.65286 44.129C6.3666 44.8428 7.19418 45.1727 7.50193 44.8649L16.6511 35.7158C16.3439 36.0229 15.5157 35.6936 14.802 34.9799C14.0882 34.2661 13.759 33.4379 14.0661 33.1308Z"
            fill="#FC5029" stroke="#191C20" stroke-width="0.5" stroke-linecap="round"
            stroke-linejoin="round" />
        <path
            d="M14.066 33.1308C13.7589 33.4379 14.0881 34.2661 14.8019 34.9799C15.5156 35.6936 16.3438 36.0229 16.651 35.7158C16.6535 35.7133 16.656 35.7108 16.6579 35.7077C16.9531 35.3949 16.6232 34.5748 15.915 33.8667C15.2069 33.1586 14.3869 32.8287 14.0741 33.1239C14.071 33.1258 14.0685 33.1283 14.066 33.1308Z"
            fill="#FC5029" stroke="#191C20" stroke-width="0.5" stroke-linecap="round"
            stroke-linejoin="round" />
        <path
            d="M16.658 35.7078C16.658 35.7078 16.6537 35.7134 16.6512 35.7158L16.6586 35.7084L16.658 35.7078Z"
            fill="white" stroke="#191C20" stroke-width="0.5" stroke-linecap="round"
            stroke-linejoin="round" />
        <path
            d="M14.0736 33.1235L14.0662 33.1309C14.0662 33.1309 14.0711 33.126 14.0742 33.1241L14.0736 33.1235Z"
            fill="white" stroke="#191C20" stroke-width="0.5" stroke-linecap="round"
            stroke-linejoin="round" />
        <path
            d="M16.7994 31.7274L14.7385 33.7883C14.5894 33.9375 14.749 34.3391 15.0959 34.6859C15.4428 35.0328 15.8443 35.1925 15.9935 35.0433L18.0544 32.9824L16.7994 31.7274Z"
            fill="#FC5029" stroke="#191C20" stroke-width="0.5" stroke-linecap="round"
            stroke-linejoin="round" />
        <path
            d="M32.7862 16.9958C37.1486 21.3583 37.1385 28.4409 32.7636 32.8158C28.3886 37.1907 21.3061 37.2008 16.9436 32.8384C12.5812 28.4759 12.5913 21.3934 16.9662 17.0184C21.3411 12.6435 28.4237 12.6334 32.7862 16.9958ZM18.824 30.958C22.1452 34.2792 27.5579 34.2715 30.8886 30.9408C34.2193 27.6101 34.227 22.1974 30.9058 18.8762C27.5846 15.555 22.1725 15.5621 18.8412 18.8934C15.5099 22.2247 15.5021 27.6362 18.824 30.958Z"
            fill="#FC5029" stroke="#191C20" stroke-width="0.5" stroke-linecap="round"
            stroke-linejoin="round" />
        <path fill-rule="evenodd" clip-rule="evenodd"
            d="M18.7156 18.7678C15.3097 22.1736 15.3019 27.6878 18.698 31.0839C22.0942 34.4801 27.6083 34.4722 31.0142 31.0663C34.42 27.6605 34.4279 22.1463 31.0317 18.7502C27.6356 15.354 22.1215 15.3619 18.7156 18.7678ZM19.2784 19.3307C16.1844 22.4247 16.1773 27.4339 19.2624 30.5191C22.3476 33.6042 27.3568 33.5971 30.4508 30.5031C33.5448 27.4091 33.552 22.3999 30.4668 19.3147C27.3816 16.2296 22.3724 16.2367 19.2784 19.3307Z"
            fill="#FC5029" />
        <path
            d="M18.5212 31.2607C15.027 27.7664 15.0358 22.094 18.5388 18.591L18.8924 18.9445C15.5837 22.2533 15.5768 27.6091 18.8748 30.9071L18.5212 31.2607ZM31.1909 31.2431C27.6879 34.7461 22.0155 34.755 18.5212 31.2607L18.8748 30.9071C22.1729 34.2052 27.5287 34.1983 30.8374 30.8896L31.1909 31.2431ZM31.2085 18.5734C34.7028 22.0677 34.694 27.7401 31.1909 31.2431L30.8374 30.8896C34.1461 27.5809 34.153 22.225 30.855 18.927L31.2085 18.5734ZM18.5388 18.591C22.0418 15.088 27.7143 15.0792 31.2085 18.5734L30.855 18.927C27.5569 15.6289 22.2011 15.6358 18.8924 18.9445L18.5388 18.591ZM19.0857 30.6958C15.9024 27.5126 15.9105 22.3451 19.1016 19.1539L19.4552 19.5075C16.4584 22.5043 16.4522 27.3552 19.4392 30.3423L19.0857 30.6958ZM30.6276 30.6799C27.4365 33.871 22.269 33.8791 19.0857 30.6958L19.4392 30.3423C22.4263 33.3294 27.2772 33.3232 30.274 30.3263L30.6276 30.6799ZM30.6436 19.1379C33.8268 22.3212 33.8187 27.4887 30.6276 30.6799L30.274 30.3263C33.2709 27.3295 33.2771 22.4786 30.29 19.4915L30.6436 19.1379ZM19.1016 19.1539C22.2928 15.9628 27.4603 15.9547 30.6436 19.1379L30.29 19.4915C27.3029 16.5044 22.452 16.5106 19.4552 19.5075L19.1016 19.1539Z"
            fill="#191C20" />
    </g>
    <defs>
        <clipPath id="clip0_8_189">
            <rect width="66" height="55" fill="white" />
        </clipPath>
    </defs>
</svg>