<svg width="67" height="67" viewBox="0 0 67 67" fill="none" xmlns="http://www.w3.org/2000/svg">
    <g clip-path="url(#clip0_8_55)">
        <path
            d="M55.8467 53.5543V56.6599H55.8417C55.6592 61.3031 48.0202 65.0387 38.6232 65.0387C35.3697 65.0387 32.3263 64.5907 29.7305 63.8116C24.8299 62.3424 21.5239 59.6955 21.4047 56.6599H21.3997V53.5543H55.8467Z"
            fill="#5A6CFE" stroke="#191C20" stroke-width="0.523188" stroke-miterlimit="10" />
        <path
            d="M55.8467 53.5543V56.6599H55.8417C55.6592 61.3031 48.0202 65.0387 38.6232 65.0387C35.3697 65.0387 32.3263 64.5907 29.7305 63.8116V53.5543H55.8467Z"
            fill="#191C20" stroke="#191C20" stroke-width="0.523188" stroke-miterlimit="10" />
        <path
            d="M38.6232 62.1036C48.1355 62.1036 55.8467 58.2756 55.8467 53.5535C55.8467 48.8314 48.1355 45.0034 38.6232 45.0034C29.1109 45.0034 21.3996 48.8314 21.3996 53.5535C21.3996 58.2756 29.1109 62.1036 38.6232 62.1036Z"
            fill="#5A6CFE" stroke="#191C20" stroke-width="0.523188" stroke-miterlimit="10" />
        <path
            d="M47.0716 47.8175C46.629 54.5443 40.633 58.3994 40.633 58.3994H36.5651C36.5651 58.3994 30.5691 54.5443 30.1265 47.8175C29.7964 42.8004 36.5476 39.2863 36.8794 38.63C37.212 37.9744 36.7968 37.197 36.7968 37.197C31.9529 33.2711 29.7355 29.9184 29.7305 26.5443C29.7214 21.1896 38.0906 16.3734 38.5991 16.0852C39.1075 16.3734 47.4767 21.1896 47.4676 26.5443C47.4626 29.9184 45.2452 33.2711 40.4013 37.197C40.4013 37.197 39.9861 37.9744 40.3187 38.63C40.6505 39.2863 47.4017 42.8004 47.0716 47.8175Z"
            fill="white" stroke="#191C20" stroke-width="0.523188" stroke-miterlimit="10" />
        <path
            d="M46.2489 47.4987C46.2489 47.586 46.2455 47.675 46.2397 47.7639C46.0688 50.3573 45.0077 52.8115 43.0846 55.0581C41.9401 56.3956 40.8114 57.2603 40.3713 57.5757H38.1998C38.6399 57.2603 39.7686 56.3956 40.9131 55.0581C42.1793 53.579 43.0721 52.0093 43.5831 50.3696C45.2152 49.6762 46.2489 48.6468 46.2489 47.4987Z"
            fill="#191C20" stroke="#191C20" stroke-width="0.523188" stroke-miterlimit="10" />
        <path
            d="M43.583 50.3697C43.072 52.0094 42.1793 53.5791 40.9131 55.0582C39.7685 56.3957 38.6399 57.2604 38.1997 57.5758H36.8268C36.3875 57.2612 35.258 56.3965 34.1135 55.0582C32.8473 53.5791 31.9554 52.0111 31.4452 50.3714C31.1793 49.5206 31.0167 48.6501 30.9584 47.764C30.955 47.708 30.9517 47.652 30.9509 47.5968C31.0467 49.4605 33.8651 50.989 37.512 51.246C37.8671 51.2707 38.2297 51.2839 38.599 51.2839C40.5029 51.2839 42.2443 50.9396 43.583 50.3697Z"
            fill="#FC5029" stroke="#191C20" stroke-width="0.523188" stroke-miterlimit="10" />
        <path
            d="M45.1293 30.7204C45.1293 30.9099 45.0868 31.0952 45.0042 31.2747C44.8817 31.4592 44.7517 31.6436 44.6141 31.8289C43.5088 33.3229 41.9383 34.886 39.8727 36.5603L39.7427 36.6657L39.6643 36.8123C39.6576 36.8246 39.6451 36.8485 39.6293 36.8814H37.6995C37.7154 36.8485 37.7279 36.8246 37.7345 36.8123L37.8129 36.6657L37.9429 36.5603C40.0086 34.886 41.579 33.3229 42.6844 31.8289C42.8219 31.6436 42.952 31.4592 43.0745 31.2755C43.157 31.0952 43.1995 30.9099 43.1995 30.7204C43.1995 29.2957 40.7888 28.1164 37.6462 27.9138C37.9613 27.8932 38.283 27.8825 38.6106 27.8825C42.2109 27.8825 45.1293 29.1532 45.1293 30.7204Z"
            fill="#191C20" stroke="#191C20" stroke-width="0.523188" stroke-miterlimit="10" />
        <path
            d="M43.1996 30.7206C43.1996 30.91 43.1571 31.0953 43.0745 31.2748C42.952 31.4593 42.8219 31.6438 42.6844 31.8291C41.5791 33.323 40.0086 34.8861 37.943 36.5604L37.8129 36.6658L37.7346 36.8124C37.7279 36.8247 37.7154 36.8486 37.6996 36.8816H37.5687C37.5529 36.8486 37.5404 36.8247 37.5337 36.8124L37.4553 36.6658L37.3253 36.5604C35.1988 34.8367 33.5967 33.2308 32.4872 31.6965C32.4872 31.6965 32.4863 31.6957 32.4863 31.6948C32.418 31.6018 32.353 31.5104 32.2904 31.4181H32.2896C32.1604 31.1941 32.092 30.961 32.092 30.7206C32.092 29.2958 34.5036 28.1165 37.6462 27.9139C40.7888 28.1165 43.1996 29.2958 43.1996 30.7206Z"
            fill="#FC5029" stroke="#191C20" stroke-width="0.523188" stroke-miterlimit="10" />
        <path
            d="M45.1293 30.7204C45.1293 30.9099 45.0868 31.0952 45.0043 31.2747C44.9176 31.4674 44.7859 31.6527 44.6142 31.8289C43.6222 32.846 41.3082 33.5592 38.6107 33.5592C35.9132 33.5592 33.4016 32.7834 32.4872 31.6964C32.4872 31.6964 32.4863 31.6955 32.4863 31.6947C32.4105 31.6049 32.3446 31.5119 32.2904 31.418H32.2896C32.1604 31.194 32.092 30.9609 32.092 30.7204C32.092 29.1532 35.0113 27.8825 38.6107 27.8825C42.2101 27.8825 45.1293 29.1532 45.1293 30.7204Z"
            fill="#FC5029" stroke="#191C20" stroke-width="0.523188" stroke-miterlimit="10" />
        <path
            d="M46.2488 47.4986C46.2488 49.5888 42.8236 51.2837 38.599 51.2837C34.3744 51.2837 31.0559 49.6415 30.9508 47.5966C30.95 47.5851 30.95 47.5744 30.95 47.5637C30.9483 47.5423 30.9483 47.52 30.9483 47.4986V47.4855C30.9625 45.4002 34.3827 43.7128 38.599 43.7128C42.8153 43.7128 46.2488 45.4076 46.2488 47.4986Z"
            fill="#FC5029" stroke="#191C20" stroke-width="0.523188" stroke-miterlimit="10" />
        <path
            d="M39.9995 22.9955V59.9837C39.9995 60.286 39.3618 60.5314 38.5757 60.5314H38.5749C37.788 60.5314 37.1511 60.286 37.1511 59.9837V22.9955H39.9995Z"
            fill="#5A6CFE" stroke="#191C20" stroke-width="0.523188" stroke-miterlimit="10" />
        <path
            d="M39.9995 23.3735V59.9838C39.9995 60.286 39.3618 60.5314 38.5757 60.5314H38.5749V23.3735H39.9995Z"
            fill="#191C20" stroke="#191C20" stroke-width="0.523188" stroke-miterlimit="10" />
        <path
            d="M53.1726 17.1844V54.1727C53.1726 54.4749 52.5349 54.7204 51.7488 54.7204H51.748C50.961 54.7204 50.3242 54.4749 50.3242 54.1727V17.1844H53.1726Z"
            fill="#5A6CFE" stroke="#191C20" stroke-width="0.523188" stroke-miterlimit="10" />
        <path
            d="M53.1726 17.5625V54.1728C53.1726 54.475 52.5349 54.7204 51.7488 54.7204H51.748V17.5625H53.1726Z"
            fill="#191C20" stroke="#191C20" stroke-width="0.523188" stroke-miterlimit="10" />
        <path
            d="M26.9222 17.1844V54.1727C26.9222 54.4749 26.2845 54.7204 25.4984 54.7204H25.4976C24.7107 54.7204 24.0738 54.4749 24.0738 54.1727V17.1844H26.9222Z"
            fill="#5A6CFE" stroke="#191C20" stroke-width="0.523188" stroke-miterlimit="10" />
        <path
            d="M26.9222 17.5625V54.1728C26.9222 54.475 26.2845 54.7204 25.4984 54.7204H25.4976V17.5625H26.9222Z"
            fill="#191C20" stroke="#191C20" stroke-width="0.523188" stroke-miterlimit="10" />
        <path
            d="M55.8467 16.1204V19.226H55.8417C55.6583 23.8692 48.0202 27.6056 38.6232 27.6056C29.2262 27.6056 21.5872 23.8692 21.4047 19.226H21.3997V16.1204H32.5247C31.8336 16.5074 31.2901 16.9612 30.9384 17.4595C32.0504 19.0341 35.0713 20.1632 38.6232 20.1632C42.1751 20.1632 45.196 19.0341 46.308 17.4595C45.9562 16.9612 45.4127 16.5074 44.7217 16.1204H55.8467Z"
            fill="#5A6CFE" stroke="#191C20" stroke-width="0.523188" stroke-miterlimit="10" />
        <path
            d="M44.6967 16.1063C44.705 16.1113 44.7134 16.1154 44.7217 16.1203C45.4127 16.5074 45.9562 16.9612 46.308 17.4594C45.196 19.0341 42.1751 20.1631 38.6232 20.1631C35.0713 20.1631 32.0504 19.0341 30.9384 17.4594C31.2901 16.9612 31.8336 16.5074 32.5247 16.1203C32.533 16.1154 32.5413 16.1113 32.5497 16.1063H29.7305V26.3637C32.3263 27.1428 35.3697 27.5908 38.6232 27.5908C48.0202 27.5908 55.6592 23.8551 55.8417 19.2119H55.8467V16.1063H44.6967Z"
            fill="#191C20" stroke="#191C20" stroke-width="0.523188" stroke-miterlimit="10" />
        <path
            d="M38.6232 7.57035C29.1111 7.57035 21.3996 11.3982 21.3996 16.1205C21.3996 19.2277 24.7373 21.9471 29.7305 23.4443C32.3263 24.2226 35.3689 24.6706 38.6232 24.6706C48.1352 24.6706 55.8467 20.8427 55.8467 16.1205V16.1065C55.8317 11.3908 48.126 7.57035 38.6232 7.57035ZM38.6232 20.1633C35.0713 20.1633 32.0504 19.0342 30.9383 17.4596C31.2901 16.9613 31.8336 16.5075 32.5247 16.1205C32.533 16.1155 32.5413 16.1114 32.5497 16.1065C34.0401 15.278 36.2091 14.7567 38.6232 14.7567C41.0372 14.7567 43.2062 15.278 44.6967 16.1065C44.705 16.1114 44.7133 16.1155 44.7217 16.1205C45.4127 16.5075 45.9562 16.9613 46.308 17.4596C45.196 19.0342 42.1751 20.1633 38.6232 20.1633Z"
            fill="#5A6CFE" stroke="#191C20" stroke-width="0.523188" stroke-miterlimit="10" />
        <path
            d="M46.7657 16.1064V16.1213C46.7657 16.5907 46.6048 17.0412 46.308 17.4595C45.9562 16.9613 45.4127 16.5075 44.7217 16.1204C44.7134 16.1155 44.705 16.1114 44.6967 16.1064C43.2062 15.2779 41.0373 14.7566 38.6232 14.7566C36.2091 14.7566 34.0401 15.2779 32.5497 16.1064C32.5414 16.1114 32.533 16.1155 32.5247 16.1204C31.8336 16.5075 31.2901 16.9613 30.9384 17.4595C30.6416 17.0412 30.4807 16.5907 30.4807 16.1213V16.1064C30.4966 13.8804 34.136 12.0784 38.6232 12.0784C43.1104 12.0784 46.7498 13.8804 46.7657 16.1064Z"
            fill="#191C20" stroke="#191C20" stroke-width="0.523188" stroke-miterlimit="10" />
        <path
            d="M50.5383 12.3979V14.5463H50.5348C50.408 17.7585 45.124 20.3433 38.6232 20.3433C32.1224 20.3433 26.8378 17.7585 26.7116 14.5463H26.7081V12.3979H34.4043C33.9262 12.6657 33.5502 12.9796 33.3069 13.3243C34.0762 14.4136 36.166 15.1947 38.6232 15.1947C41.0804 15.1947 43.1702 14.4136 43.9395 13.3243C43.6961 12.9796 43.3201 12.6657 42.8421 12.3979H50.5383Z"
            fill="#5A6CFE" stroke="#191C20" stroke-width="0.523188" stroke-miterlimit="10" />
        <path
            d="M42.8248 12.3882C42.8306 12.3916 42.8364 12.3945 42.8421 12.3979C43.3202 12.6656 43.6962 12.9796 43.9395 13.3243C43.1702 14.4136 41.0804 15.1947 38.6232 15.1947C36.166 15.1947 34.0762 14.4136 33.3069 13.3243C33.5503 12.9796 33.9263 12.6656 34.4043 12.3979C34.4101 12.3945 34.4159 12.3916 34.4216 12.3882H32.4713V19.4841C34.2671 20.0231 36.3725 20.333 38.6232 20.333C45.124 20.333 50.4086 17.7488 50.5349 14.5366H50.5383V12.3882H42.8248Z"
            fill="#191C20" stroke="#191C20" stroke-width="0.523188" stroke-miterlimit="10" />
        <path
            d="M38.6231 6.48284C32.0428 6.48284 26.708 9.13093 26.708 12.3977C26.708 14.5473 29.017 16.4286 32.4712 17.4643C34.267 18.0027 36.3718 18.3127 38.6231 18.3127C45.2035 18.3127 50.5382 15.6646 50.5382 12.3977V12.3881C50.5278 9.12581 45.1971 6.48284 38.6231 6.48284Z"
            fill="#5A6CFE" stroke="#191C20" stroke-width="0.523188" stroke-miterlimit="10" />
        <ellipse cx="38.6918" cy="12.6649" rx="4.05714" ry="1.18163" fill="#191C20" />
        <circle cx="38.5749" cy="7.70255" r="5.71203" fill="#5A6CFE" stroke="#191C20"
            stroke-width="0.523188" stroke-miterlimit="10" />
    </g>
    <g clip-path="url(#clip1_8_55)">
        <path
            d="M47.5473 35.4938L47.5473 40.9615L55.6805 36.2246C55.9941 36.0418 56.1312 35.7055 56.0918 35.388L56.0918 30.1327C56.0614 30.3799 55.9249 30.615 55.6805 30.757L53.0781 32.2726L52.2715 32.7423L47.5473 35.4938Z"
            fill="#FC5029" stroke="#191C20" stroke-width="0.523188" stroke-miterlimit="10" />
        <path
            d="M53.078 32.2725L55.6804 30.7569C55.9248 30.615 56.0613 30.3798 56.0917 30.1327L56.0917 30.0202L56.0983 30.0262C56.0983 29.7423 55.9594 29.4584 55.6804 29.2961L54.7563 28.7578L53.4953 28.0234C53.2533 27.8821 53.1173 27.4244 53.0851 27.179L53.078 32.2725Z"
            fill="#191C20" stroke="#191C20" stroke-width="0.523188" stroke-miterlimit="10" />
        <path
            d="M53.0847 27.4046C53.1169 27.6499 53.2534 27.8821 53.4954 28.0234L54.7564 28.7578L55.6805 29.2961C55.9595 29.4585 56.0984 29.7423 56.0984 30.0262C56.0984 30.0617 56.096 30.0972 56.0918 30.1327L56.0918 30.5182L56.3422 30.372L66.3224 24.5592L66.3224 19.0916L53.4954 26.5626C53.2546 26.7027 53.1174 26.9348 53.0853 27.1784L53.0853 27.4046L53.0847 27.4046Z"
            fill="#FC5029" stroke="#191C20" stroke-width="0.523188" stroke-miterlimit="10" />
        <path d="M53.0846 27.4046L53.0846 27.179C53.075 27.2536 53.075 27.33 53.0846 27.4046Z"
            stroke="#191C20" stroke-width="0.523188" stroke-miterlimit="10" />
        <path
            d="M56.0917 30.02L56.0917 30.1325C56.0959 30.097 56.0983 30.0615 56.0983 30.026L56.0917 30.02Z"
            stroke="#191C20" stroke-width="0.523188" stroke-miterlimit="10" />
    </g>
    <g clip-path="url(#clip2_8_55)">
        <path
            d="M56.9497 40.4776L56.9497 43.0812L61.0163 40.8256C61.1731 40.7385 61.2417 40.5784 61.222 40.4272L61.222 37.9247C61.2068 38.0424 61.1385 38.1544 61.0163 38.222L59.7151 38.9437L59.3118 39.1674L56.9497 40.4776Z"
            fill="#FC5029" stroke="#191C20" stroke-width="0.523188" stroke-miterlimit="10" />
        <path
            d="M59.7152 38.9438L61.0163 38.2221C61.1386 38.1545 61.2068 38.0426 61.222 37.9248L61.222 37.8713L61.2253 37.8742C61.2253 37.739 61.1558 37.6038 61.0163 37.5265L60.5543 37.2701L59.9238 36.9205C59.8028 36.8532 59.7348 36.6352 59.7187 36.5184L59.7152 38.9438Z"
            fill="#191C20" stroke="#191C20" stroke-width="0.523188" stroke-miterlimit="10" />
        <path
            d="M59.7185 36.6253C59.7346 36.7422 59.8029 36.8527 59.9239 36.92L60.5544 37.2697L61.0164 37.526C61.1559 37.6034 61.2254 37.7386 61.2254 37.8737C61.2254 37.8906 61.2242 37.9075 61.2221 37.9244L61.2221 38.108L61.3473 38.0384L66.3374 35.2704L66.3374 32.6668L59.9239 36.2244C59.8035 36.2911 59.7349 36.4017 59.7188 36.5176L59.7188 36.6253L59.7185 36.6253Z"
            fill="#FC5029" stroke="#191C20" stroke-width="0.523188" stroke-miterlimit="10" />
        <path d="M59.7184 36.6258L59.7184 36.5184C59.7137 36.5539 59.7137 36.5902 59.7184 36.6258Z"
            stroke="#191C20" stroke-width="0.523188" stroke-miterlimit="10" />
        <path
            d="M61.222 37.8713L61.222 37.9248C61.2241 37.9079 61.2253 37.891 61.2253 37.8742L61.222 37.8713Z"
            stroke="#191C20" stroke-width="0.523188" stroke-miterlimit="10" />
    </g>
    <g clip-path="url(#clip3_8_55)">
        <path
            d="M28.1346 43.607V48.2935L21.3569 44.2333C21.0956 44.0766 20.9813 43.7884 21.0141 43.5163V39.0117C21.0395 39.2236 21.1532 39.4251 21.3569 39.5468L23.5256 40.8459L24.1978 41.2485L28.1346 43.607Z"
            fill="#FC5029" stroke="#191C20" stroke-width="0.523188" stroke-miterlimit="10" />
        <path
            d="M23.5256 40.8459L21.3569 39.5469C21.1532 39.4252 21.0395 39.2236 21.0141 39.0117V38.9153L21.0087 38.9205C21.0087 38.6772 21.1244 38.4339 21.3569 38.2947L22.127 37.8333L23.1778 37.2038C23.3795 37.0827 23.4928 36.6904 23.5196 36.4801L23.5256 40.8459Z"
            fill="#191C20" stroke="#191C20" stroke-width="0.523188" stroke-miterlimit="10" />
        <path
            d="M23.52 36.6735C23.4932 36.8838 23.3794 37.0828 23.1777 37.204L22.127 37.8334L21.3569 38.2948C21.1244 38.434 21.0086 38.6773 21.0086 38.9206C21.0086 38.951 21.0106 38.9814 21.0141 39.0119V39.3423L20.8054 39.217L12.4886 34.2346V29.5481L23.1777 35.9518C23.3785 36.0719 23.4927 36.2709 23.5196 36.4797V36.6735H23.52Z"
            fill="#FC5029" stroke="#191C20" stroke-width="0.523188" stroke-miterlimit="10" />
        <path d="M23.5201 36.6734V36.4801C23.5281 36.544 23.5281 36.6095 23.5201 36.6734Z"
            stroke="#191C20" stroke-width="0.523188" stroke-miterlimit="10" />
        <path
            d="M21.0141 38.9154V39.0118C21.0106 38.9814 21.0087 38.951 21.0087 38.9206L21.0141 38.9154Z"
            stroke="#191C20" stroke-width="0.523188" stroke-miterlimit="10" />
    </g>
    <defs>
        <clipPath id="clip0_8_55">
            <rect width="36.6232" height="63.829" fill="white"
                transform="translate(20.3116 1.77404)" />
        </clipPath>
        <clipPath id="clip1_8_55">
            <rect width="18.8348" height="21.9739" fill="white"
                transform="matrix(-1 8.74228e-08 8.74228e-08 1 66.3522 19.0393)" />
        </clipPath>
        <clipPath id="clip2_8_55">
            <rect width="9.41739" height="10.4638" fill="white"
                transform="matrix(-1 8.74228e-08 8.74228e-08 1 66.3522 32.6422)" />
        </clipPath>
        <clipPath id="clip3_8_55">
            <rect width="15.6957" height="18.8348" fill="white"
                transform="translate(12.4638 29.503)" />
        </clipPath>
    </defs>
</svg>