<svg width="67" height="51" viewBox="0 0 67 51" fill="none" xmlns="http://www.w3.org/2000/svg">
    <path
        d="M52.9198 13.8294L35.734 3.8521L30.2441 6.3345L18.405 14.0681L35.734 24.6183L52.9198 13.8294Z"
        fill="#5A6CFE" />
    <path d="M56.2966 14.1953L35.2964 26.2463V50.3462L56.2966 38.2959V14.1953Z" fill="white"
        stroke="#191C20" stroke-width="0.5" stroke-miterlimit="10" stroke-linejoin="round" />
    <path d="M14.1703 14.1234L35.2963 26.2465V50.3464L14.1703 38.2239V14.1234Z" fill="white"
        stroke="#191C20" stroke-width="0.5" stroke-miterlimit="10" stroke-linejoin="round" />
    <path d="M45.7035 15.9435V14.214L32.6943 21.6781V23.4082L45.7035 15.9435Z" fill="#191C20"
        stroke="#191C20" stroke-width="0.5" stroke-miterlimit="10" stroke-linejoin="round" />
    <path d="M35.2956 14.2624V15.9919L32.7849 17.3461V15.6166L34.9254 14.4623L35.2956 14.2624Z"
        fill="#191C20" stroke="#191C20" stroke-width="0.5" stroke-miterlimit="10"
        stroke-linejoin="round" />
    <path d="M27.6204 12.6526V14.3828L32.785 17.3461V15.6166L27.6204 12.6526Z" fill="white"
        stroke="#191C20" stroke-width="0.5" stroke-miterlimit="10" stroke-linejoin="round" />
    <path d="M35.3351 11.3207V13.0509L32.7031 14.5037V12.7742L35.3351 11.3207Z" fill="#191C20"
        stroke="#191C20" stroke-width="0.5" stroke-miterlimit="10" stroke-linejoin="round" />
    <path d="M40.3757 14.2138V15.9434L35.335 13.0509V11.3207L40.3757 14.2138Z" fill="white"
        stroke="#191C20" stroke-width="0.5" stroke-miterlimit="10" stroke-linejoin="round" />
    <path d="M35.351 5.2169V6.9464L22.262 14.3668V12.6366L35.351 5.2169Z" fill="#191C20"
        stroke="#191C20" stroke-width="0.5" stroke-miterlimit="10" stroke-linejoin="round" />
    <path d="M51.0312 14.2139V15.9434L35.3508 6.9464V5.2169L51.0312 14.2139Z" fill="white"
        stroke="#191C20" stroke-width="0.5" stroke-miterlimit="10" stroke-linejoin="round" />
    <path
        d="M35.2964 2.1458L14.1697 14.1239L35.2957 26.2463L56.2959 14.196L35.2964 2.1458ZM32.6944 21.6787L35.2218 20.2285L45.7036 14.2139L35.343 8.2695L27.6204 12.6532L32.785 15.6165L34.9254 14.4621L35.2957 14.2622L34.707 13.924L32.7031 12.7743L35.335 11.3215L40.3758 14.2139L32.5859 18.6843L32.5106 18.6406L22.2619 12.6373L35.351 5.2169L51.0314 14.2139L35.3583 23.2076L32.6944 21.6787Z"
        fill="white" stroke="#191C20" stroke-width="0.5" stroke-miterlimit="10"
        stroke-linejoin="round" />
    <path
        d="M36.2365 15.2967C36.7908 15.2967 37.2402 15.1637 37.2402 14.9995C37.2402 14.8354 36.7908 14.7023 36.2365 14.7023C35.6822 14.7023 35.2329 14.8354 35.2329 14.9995C35.2329 15.1637 35.6822 15.2967 36.2365 15.2967Z"
        fill="#191C20" stroke="#191C20" stroke-width="0.5" stroke-miterlimit="10"
        stroke-linejoin="round" />
    <path
        d="M37.7499 13.6321C37.7499 14.4754 37.0627 15.1591 36.2142 15.1591C35.8692 15.1591 35.5516 15.0466 35.2958 14.856V14.2623L34.7071 13.924C34.6878 13.8294 34.6785 13.7321 34.6785 13.6321C34.6785 12.7896 35.3664 12.1058 36.2142 12.1058C37.062 12.1058 37.7499 12.7896 37.7499 13.6321Z"
        fill="#FC5029" stroke="#191C20" stroke-width="0.5" stroke-miterlimit="10"
        stroke-linejoin="round" />
    <path
        d="M36.3059 22.2817C36.8602 22.2817 37.3095 22.1486 37.3095 21.9845C37.3095 21.8204 36.8602 21.6873 36.3059 21.6873C35.7516 21.6873 35.3022 21.8204 35.3022 21.9845C35.3022 22.1486 35.7516 22.2817 36.3059 22.2817Z"
        fill="#191C20" stroke="#191C20" stroke-width="0.5" stroke-miterlimit="10"
        stroke-linejoin="round" />
    <path
        d="M36.306 22.0599C37.1542 22.0599 37.8417 21.3766 37.8417 20.5336C37.8417 19.6907 37.1542 19.0073 36.306 19.0073C35.4578 19.0073 34.7703 19.6907 34.7703 20.5336C34.7703 21.3766 35.4578 22.0599 36.306 22.0599Z"
        fill="#FC5029" stroke="#191C20" stroke-width="0.5" stroke-miterlimit="10"
        stroke-linejoin="round" />
    <path
        d="M39.4531 20.482C40.0074 20.482 40.4567 20.349 40.4567 20.1848C40.4567 20.0207 40.0074 19.8876 39.4531 19.8876C38.8988 19.8876 38.4495 20.0207 38.4495 20.1848C38.4495 20.349 38.8988 20.482 39.4531 20.482Z"
        fill="#191C20" stroke="#191C20" stroke-width="0.5" stroke-miterlimit="10"
        stroke-linejoin="round" />
    <path
        d="M39.4532 20.2603C40.3014 20.2603 40.989 19.577 40.989 18.734C40.989 17.8911 40.3014 17.2077 39.4532 17.2077C38.6051 17.2077 37.9175 17.8911 37.9175 18.734C37.9175 19.577 38.6051 20.2603 39.4532 20.2603Z"
        fill="#FC5029" stroke="#191C20" stroke-width="0.5" stroke-miterlimit="10"
        stroke-linejoin="round" />
    <path
        d="M56.2685 30.7324V33.7407L51.0253 30.7324L48.4033 29.228V26.2197L51.0313 24.7119L51.0279 27.7255L56.2685 30.7324Z"
        fill="white" stroke="#191C20" stroke-width="0.5" stroke-miterlimit="10"
        stroke-linejoin="round" />
    <path
        d="M51.0253 30.7324L43.1608 35.2451L40.5388 36.7496V30.7324L48.4033 26.2197V29.2279L48.4266 29.2412L51.0253 30.7324Z"
        fill="#5A6CFE" stroke="#191C20" stroke-width="0.5" stroke-miterlimit="10"
        stroke-linejoin="round" />
    <path
        d="M56.2685 33.7407L45.782 39.7579L40.5388 36.7496V33.7671L40.5621 33.7539L48.4266 29.2411L51.0253 30.7324L56.2685 33.7407Z"
        fill="white" stroke="#191C20" stroke-width="0.5" stroke-miterlimit="10"
        stroke-linejoin="round" />
    <path d="M45.782 36.749L56.2684 30.7325V33.7408L45.782 39.758V36.749Z" fill="white"
        stroke="#191C20" stroke-width="0.5" stroke-miterlimit="10" stroke-linejoin="round" />
    <path
        d="M45.782 36.7497V39.7579L40.5388 36.7497V33.7407L40.5621 33.754L43.1608 35.2452L45.782 36.7497Z"
        fill="#191C20" stroke="#191C20" stroke-width="0.5" stroke-miterlimit="10"
        stroke-linejoin="round" />
    <path
        d="M48.2309 31.7177C48.7852 31.7177 49.2345 31.5846 49.2345 31.4205C49.2345 31.2563 48.7852 31.1233 48.2309 31.1233C47.6766 31.1233 47.2273 31.2563 47.2273 31.4205C47.2273 31.5846 47.6766 31.7177 48.2309 31.7177Z"
        fill="#191C20" stroke="#191C20" stroke-width="0.5" stroke-miterlimit="10"
        stroke-linejoin="round" />
    <path
        d="M48.2308 31.4958C49.079 31.4958 49.7665 30.8124 49.7665 29.9695C49.7665 29.1265 49.079 28.4432 48.2308 28.4432C47.3826 28.4432 46.6951 29.1265 46.6951 29.9695C46.6951 30.8124 47.3826 31.4958 48.2308 31.4958Z"
        fill="#FC5029" stroke="#191C20" stroke-width="0.5" stroke-miterlimit="10"
        stroke-linejoin="round" />
    <path
        d="M45.9704 32.9464C46.5247 32.9464 46.974 32.8133 46.974 32.6492C46.974 32.485 46.5247 32.352 45.9704 32.352C45.4161 32.352 44.9668 32.485 44.9668 32.6492C44.9668 32.8133 45.4161 32.9464 45.9704 32.9464Z"
        fill="#191C20" stroke="#191C20" stroke-width="0.5" stroke-miterlimit="10"
        stroke-linejoin="round" />
    <path
        d="M45.9706 32.7246C46.8187 32.7246 47.5063 32.0412 47.5063 31.1982C47.5063 30.3553 46.8187 29.6719 45.9706 29.6719C45.1224 29.6719 44.4348 30.3553 44.4348 31.1982C44.4348 32.0412 45.1224 32.7246 45.9706 32.7246Z"
        fill="#FC5029" stroke="#191C20" stroke-width="0.5" stroke-miterlimit="10"
        stroke-linejoin="round" />
    <path
        d="M43.7104 34.1753C44.2647 34.1753 44.714 34.0423 44.714 33.8781C44.714 33.714 44.2647 33.5809 43.7104 33.5809C43.1561 33.5809 42.7068 33.714 42.7068 33.8781C42.7068 34.0423 43.1561 34.1753 43.7104 34.1753Z"
        fill="#191C20" stroke="#191C20" stroke-width="0.5" stroke-miterlimit="10"
        stroke-linejoin="round" />
    <path
        d="M43.7105 33.9535C44.5587 33.9535 45.2463 33.2701 45.2463 32.4272C45.2463 31.5842 44.5587 30.9009 43.7105 30.9009C42.8624 30.9009 42.1748 31.5842 42.1748 32.4272C42.1748 33.2701 42.8624 33.9535 43.7105 33.9535Z"
        fill="#FC5029" stroke="#191C20" stroke-width="0.5" stroke-miterlimit="10"
        stroke-linejoin="round" />
    <path
        d="M49.042 33.5608C49.5962 33.5608 50.0456 33.4277 50.0456 33.2636C50.0456 33.0995 49.5962 32.9664 49.042 32.9664C48.4877 32.9664 48.0383 33.0995 48.0383 33.2636C48.0383 33.4277 48.4877 33.5608 49.042 33.5608Z"
        fill="#191C20" stroke="#191C20" stroke-width="0.5" stroke-miterlimit="10"
        stroke-linejoin="round" />
    <path
        d="M49.0421 33.3391C49.8902 33.3391 50.5778 32.6558 50.5778 31.8128C50.5778 30.9699 49.8902 30.2865 49.0421 30.2865C48.1939 30.2865 47.5063 30.9699 47.5063 31.8128C47.5063 32.6558 48.1939 33.3391 49.0421 33.3391Z"
        fill="#FC5029" stroke="#191C20" stroke-width="0.5" stroke-miterlimit="10"
        stroke-linejoin="round" />
    <path
        d="M46.7817 34.7898C47.336 34.7898 47.7853 34.6568 47.7853 34.4926C47.7853 34.3285 47.336 34.1954 46.7817 34.1954C46.2274 34.1954 45.7781 34.3285 45.7781 34.4926C45.7781 34.6568 46.2274 34.7898 46.7817 34.7898Z"
        fill="#191C20" stroke="#191C20" stroke-width="0.5" stroke-miterlimit="10"
        stroke-linejoin="round" />
    <path
        d="M46.7818 34.5679C47.63 34.5679 48.3176 33.8845 48.3176 33.0416C48.3176 32.1986 47.63 31.5153 46.7818 31.5153C45.9337 31.5153 45.2461 32.1986 45.2461 33.0416C45.2461 33.8845 45.9337 34.5679 46.7818 34.5679Z"
        fill="#FC5029" stroke="#191C20" stroke-width="0.5" stroke-miterlimit="10"
        stroke-linejoin="round" />
    <path
        d="M21.9861 39.2145L16.2159 29.3699L18.9707 27.8064L22.4729 33.7803L28.9915 30.0732L28.9924 30.075L31.3244 33.9072L21.9861 39.2145Z"
        fill="#FC5029" stroke="#191C20" stroke-width="0.5" stroke-miterlimit="10" />
    <path d="M33.2506 32.8119L31.3244 33.9072L28.9924 30.075L30.9826 28.944L33.2506 32.8119Z"
        fill="#191C20" stroke="#191C20" stroke-width="0.5" stroke-miterlimit="10" />
    <path d="M20.9564 26.6778L18.9658 27.8098L22.4675 33.7837L24.4581 32.6518L20.9564 26.6778Z"
        fill="#191C20" stroke="#191C20" stroke-width="0.5" stroke-miterlimit="10" />
</svg>