<svg width="66" height="67" viewBox="0 0 66 67" fill="none" xmlns="http://www.w3.org/2000/svg">
    <g clip-path="url(#clip0_871_4251)">
        <path
            d="M43.1021 60.2046V62.2793H43.0853C42.8043 64.5164 39.0878 66.2871 34.5444 66.2871C30.001 66.2871 26.2839 64.5164 26.0028 62.2793H25.9861V60.2046H28.1253C27.678 60.5209 27.3519 60.859 27.165 61.2016C27.4511 61.7263 28.0641 62.2421 28.9401 62.6803C30.4199 63.4207 32.411 63.828 34.5444 63.828C36.6779 63.828 38.6682 63.4207 40.1488 62.6803C41.0241 62.2421 41.637 61.7263 41.9232 61.2016C41.7363 60.859 41.4102 60.5209 40.9628 60.2046H43.1021Z"
            fill="#5A6CFE" stroke="#191C20" stroke-width="0.523188" stroke-miterlimit="10" />
        <path
            d="M43.0763 60.2044C42.7354 57.9975 39.0453 56.2589 34.5444 56.2589C30.0435 56.2589 26.3528 57.9975 26.0119 60.2044C25.9945 60.3148 25.9861 60.4264 25.9861 60.5387C25.9861 62.9028 29.8179 64.8191 34.5444 64.8191C39.2709 64.8191 43.1027 62.9021 43.1027 60.5387C43.1027 60.4264 43.0944 60.3148 43.077 60.2044H43.0763ZM40.1488 62.6801C38.6682 63.4205 36.6779 63.8279 34.5444 63.8279C32.411 63.8279 30.4199 63.4205 28.9401 62.6801C28.0641 62.242 27.4511 61.7262 27.165 61.2014C27.3519 60.8588 27.678 60.5207 28.1253 60.2044C28.3632 60.037 28.6358 59.8753 28.9401 59.7233C30.4199 58.9829 32.411 58.5749 34.5444 58.5749C36.6779 58.5749 38.6682 58.9829 40.1488 59.7233C40.4524 59.8753 40.725 60.037 40.9628 60.2044C41.4102 60.5207 41.7363 60.8588 41.9232 61.2014C41.637 61.7262 41.0241 62.242 40.1488 62.6801Z"
            fill="#5A6CFE" stroke="#191C20" stroke-width="0.523188" stroke-miterlimit="10" />
        <path
            d="M42.1068 60.5389C42.1068 60.7577 42.0443 60.9803 41.9237 61.2016C41.7368 60.859 41.4107 60.5209 40.9634 60.2047C40.7255 60.0372 40.4529 59.8755 40.1493 59.7235C38.6688 58.9832 36.6784 58.5751 34.5449 58.5751C32.4115 58.5751 30.4205 58.9832 28.9406 59.7235C28.6363 59.8755 28.3643 60.0372 28.1259 60.2047C27.6785 60.5209 27.3524 60.859 27.1655 61.2016C27.0449 60.9803 26.9824 60.7583 26.9824 60.5389C26.9824 60.4279 26.9985 60.3163 27.0301 60.2047C27.2087 59.5702 27.8822 58.9273 28.9406 58.3981C30.4205 57.6577 32.4115 57.2497 34.5449 57.2497C36.6784 57.2497 38.6688 57.6577 40.1493 58.3981C41.207 58.9267 41.8812 59.5702 42.0591 60.2047C42.0907 60.3169 42.1068 60.4279 42.1068 60.5389Z"
            fill="#191C20" stroke="#191C20" stroke-width="0.523188" stroke-miterlimit="10" />
        <path
            d="M46.2824 54.3954V57.2413H46.2594C45.8739 60.3098 40.7761 62.7386 34.5441 62.7386C28.312 62.7386 23.2134 60.3098 22.8279 57.2413H22.8049V54.3954H25.7393C25.1257 54.8293 24.6784 55.293 24.422 55.7629C24.8145 56.4828 25.6553 57.1903 26.8568 57.7913C28.8867 58.8068 31.6177 59.3656 34.5441 59.3656C37.4705 59.3656 40.2006 58.8068 42.2314 57.7913C43.432 57.1903 44.2728 56.4828 44.6653 55.7629C44.4089 55.293 43.9616 54.8293 43.348 54.3954H46.2824Z"
            fill="#5A6CFE" stroke="#191C20" stroke-width="0.523188" stroke-miterlimit="10" />
        <path
            d="M46.247 54.3955C45.7793 51.3683 40.7178 48.9836 34.5441 48.9836C28.3704 48.9836 23.308 51.3683 22.8403 54.3955C22.8164 54.5469 22.8049 54.7 22.8049 54.854C22.8049 58.0967 28.0609 60.7252 34.5441 60.7252C41.0272 60.7252 46.2832 58.0958 46.2832 54.854C46.2832 54.7 46.2717 54.5469 46.2479 54.3955H46.247ZM42.2314 57.7914C40.2006 58.8069 37.4705 59.3657 34.5441 59.3657C31.6177 59.3657 28.8867 58.8069 26.8568 57.7914C25.6553 57.1903 24.8145 56.4828 24.422 55.763C24.6784 55.2931 25.1257 54.8293 25.7393 54.3955C26.0655 54.1658 26.4395 53.9441 26.8568 53.7355C28.8867 52.72 31.6177 52.1603 34.5441 52.1603C37.4705 52.1603 40.2006 52.72 42.2314 53.7355C42.6478 53.9441 43.0218 54.1658 43.348 54.3955C43.9616 54.8293 44.4089 55.2931 44.6653 55.763C44.2728 56.4828 43.432 57.1903 42.2314 57.7914Z"
            fill="#5A6CFE" stroke="#191C20" stroke-width="0.523188" stroke-miterlimit="10" />
        <path
            d="M44.9174 54.854C44.9174 55.154 44.8317 55.4594 44.6663 55.763C44.4099 55.2931 43.9626 54.8293 43.349 54.3955C43.0228 54.1658 42.6488 53.9441 42.2324 53.7355C40.2016 52.72 37.4715 52.1603 34.5451 52.1603C31.6187 52.1603 28.8877 52.72 26.8578 53.7355C26.4405 53.9441 26.0674 54.1658 25.7403 54.3955C25.1267 54.8293 24.6794 55.2931 24.423 55.763C24.2576 55.4594 24.1719 55.1549 24.1719 54.854C24.1719 54.7017 24.194 54.5486 24.2373 54.3955C24.4822 53.5252 25.4061 52.6434 26.8578 51.9175C28.8877 50.902 31.6187 50.3423 34.5451 50.3423C37.4715 50.3423 40.2016 50.902 42.2324 51.9175C43.6832 52.6426 44.608 53.5252 44.852 54.3955C44.8953 54.5495 44.9174 54.7017 44.9174 54.854Z"
            fill="#191C20" stroke="#191C20" stroke-width="0.523188" stroke-miterlimit="10" />
        <path
            d="M49.7409 46.6489V50.3334H49.7108C49.2113 54.3056 42.6123 57.4498 34.544 57.4498C26.4756 57.4498 19.8758 54.3056 19.3763 50.3334H19.3462V46.6489H23.1452C22.3504 47.2103 21.7713 47.8113 21.4398 48.4194C21.9481 49.3513 23.0364 50.2674 24.5916 51.0453C27.22 52.36 30.7547 53.0833 34.544 53.0833C38.3332 53.0833 41.867 52.36 44.4963 51.0453C46.0506 50.2674 47.1389 49.3513 47.6473 48.4194C47.3158 47.8113 46.7367 47.2103 45.9419 46.6489H49.7409Z"
            fill="#5A6CFE" stroke="#191C20" stroke-width="0.523188" stroke-miterlimit="10" />
        <path
            d="M49.6949 46.649C49.0893 42.7296 42.5372 39.6426 34.544 39.6426C26.5508 39.6426 19.9978 42.7296 19.3922 46.649C19.3612 46.8453 19.3462 47.0433 19.3462 47.243C19.3462 51.4406 26.1503 54.8443 34.544 54.8443C42.9377 54.8443 49.7409 51.4406 49.7409 47.243C49.7409 47.0433 49.7258 46.8453 49.6949 46.649ZM44.4963 51.0454C41.867 52.3601 38.3324 53.0835 34.544 53.0835C30.7556 53.0835 27.22 52.3601 24.5916 51.0454C23.0364 50.2675 21.9481 49.3515 21.4398 48.4196C21.7713 47.8115 22.3504 47.2105 23.1452 46.649C23.5678 46.3516 24.0514 46.0647 24.5916 45.7946C27.22 44.4799 30.7547 43.7556 34.544 43.7556C38.3332 43.7556 41.867 44.4799 44.4963 45.7946C45.0356 46.0647 45.5193 46.3516 45.9419 46.649C46.7367 47.2105 47.3158 47.8115 47.6473 48.4196C47.1389 49.3515 46.0506 50.2675 44.4963 51.0454Z"
            fill="#5A6CFE" stroke="#191C20" stroke-width="0.523188" stroke-miterlimit="10" />
        <path
            d="M47.9727 47.2429C47.9727 47.6318 47.8613 48.0269 47.6474 48.4194C47.3159 47.8113 46.7368 47.2103 45.942 46.6489C45.5194 46.3514 45.0357 46.0646 44.4964 45.7944C41.8671 44.4797 38.3325 43.7555 34.5441 43.7555C30.7557 43.7555 27.2201 44.4797 24.5917 45.7944C24.0515 46.0646 23.5679 46.3514 23.1453 46.6489C22.3505 47.2103 21.7714 47.8113 21.4399 48.4194C21.2259 48.0269 21.1145 47.6318 21.1145 47.2429C21.1145 47.0458 21.1428 46.8478 21.1994 46.6489C21.5159 45.5225 22.713 44.3803 24.5917 43.4413C27.2201 42.1266 30.7548 41.4024 34.5441 41.4024C38.3333 41.4024 41.8671 42.1266 44.4964 43.4413C46.3743 44.3803 47.5714 45.5225 47.8879 46.6489C47.9445 46.8478 47.9727 47.0458 47.9727 47.2429Z"
            fill="#191C20" stroke="#191C20" stroke-width="0.523188" stroke-miterlimit="10" />
        <path
            d="M52.8114 38.9713V42.2897H52.8061C52.6125 47.251 44.5105 51.2427 34.544 51.2427C31.0933 51.2427 27.8655 50.7639 25.1124 49.9315C19.9147 48.3616 16.4083 45.5333 16.2819 42.2897H16.2766V38.9713H19.3047C18.8918 39.4104 18.5744 39.8618 18.3622 40.3168C18.9555 41.5875 20.3638 42.83 22.4211 43.8587C25.6296 45.4629 29.9343 46.3473 34.544 46.3473C39.1537 46.3473 43.4576 45.4629 46.6669 43.8587C48.7233 42.83 50.1317 41.5875 50.7249 40.3168C50.5127 39.8618 50.1962 39.4104 49.7824 38.9713H52.8114Z"
            fill="#5A6CFE" stroke="#191C20" stroke-width="0.523188" stroke-miterlimit="10" />
        <path
            d="M34.544 29.835C24.4546 29.835 16.2766 33.9252 16.2766 38.971C16.2766 44.0169 24.4546 48.1071 34.544 48.1071C44.6334 48.1071 52.8105 44.0169 52.8105 38.971C52.8105 33.9252 44.6325 29.835 34.544 29.835ZM46.6669 43.8585C43.4576 45.4627 39.1528 46.3471 34.544 46.3471C29.9352 46.3471 25.6296 45.4627 22.4211 43.8585C20.3638 42.8298 18.9555 41.5872 18.3622 40.3165C18.5744 39.8616 18.8918 39.4101 19.3047 38.971C20.0464 38.1826 21.1003 37.4337 22.4211 36.7728C25.6296 35.1686 29.9343 34.2842 34.544 34.2842C39.1537 34.2842 43.4576 35.1686 46.6669 36.7728C47.9877 37.4337 49.0407 38.1826 49.7824 38.971C50.1962 39.4101 50.5127 39.8616 50.7249 40.3165C50.1317 41.5872 48.7233 42.8298 46.6669 43.8585Z"
            fill="#5A6CFE" stroke="#191C20" stroke-width="0.523188" stroke-miterlimit="10" />
        <path
            d="M51.0421 38.971C51.0421 39.3432 50.967 39.7181 50.822 40.0912C50.7928 40.166 50.7601 40.2417 50.7248 40.3165C50.5126 39.8616 50.1961 39.4101 49.7823 38.971C49.0405 38.1825 47.9876 37.4337 46.6667 36.7728C43.4574 35.1686 39.1527 34.2842 34.5439 34.2842C29.935 34.2842 25.6294 35.1686 22.421 36.7728C21.1001 37.4337 20.0463 38.1825 19.3045 38.971C18.8917 39.4101 18.5743 39.8616 18.3621 40.3165C18.3267 40.2417 18.294 40.166 18.2648 40.0912C18.1198 39.7181 18.0447 39.3432 18.0447 38.971C18.0447 37.2559 19.6396 35.4739 22.421 34.0836C25.6294 32.4785 29.9341 31.595 34.5439 31.595C39.1536 31.595 43.4574 32.4785 46.6667 34.0836C49.4472 35.4739 51.0421 37.2559 51.0421 38.971Z"
            fill="#191C20" stroke="#191C20" stroke-width="0.523188" stroke-miterlimit="10" />
        <path
            d="M41.1942 26.0408C41.4308 26.8529 41.2872 27.5459 40.8446 27.75C40.3549 27.9839 39.594 27.5588 39.062 26.7318L44.233 23.5365C44.3343 23.6936 44.4432 23.8358 44.5576 23.9623L41.1942 26.0408Z"
            fill="#FC5029" stroke="#191C20" stroke-width="0.523188" stroke-miterlimit="10"
            stroke-linejoin="round" />
        <path
            d="M31.5138 9.3529L31.2079 9.52361L29.3282 10.5744L27.0232 11.8619C26.5973 11.9816 26.193 12.1483 25.8142 12.3612L25.7622 12.3598L30.6357 9.37943L30.6419 9.37534C30.8972 9.20599 31.1656 9.05976 31.4451 8.93597C31.4708 9.07472 31.4937 9.21347 31.5138 9.3529Z"
            fill="#FC5029" stroke="#191C20" stroke-width="0.523188" stroke-miterlimit="10"
            stroke-linejoin="round" />
        <path
            d="M31.4153 12.1075C31.0171 13.514 29.9316 14.592 27.6066 14.7607C27.5746 14.7634 27.5414 14.7655 27.5088 14.7675C27.5088 14.7675 27.0052 13.3671 26.9753 12.3884C26.9691 12.1904 26.9823 12.0102 27.0232 11.8619L29.3281 10.5744L31.2079 9.52362L31.5138 9.35291C31.5263 9.43928 31.5381 9.52634 31.5485 9.61272C31.5596 9.7059 31.5693 9.79908 31.5769 9.89226C31.6456 10.6622 31.6123 11.4232 31.4153 12.1075Z"
            fill="#FC5029" stroke="#191C20" stroke-width="0.523188" stroke-miterlimit="10"
            stroke-linejoin="round" />
        <path
            d="M43.5345 38.5113C41.8573 38.5004 39.954 37.8794 37.9473 36.5695C32.4364 32.9729 27.9355 25.0833 27.4777 18.2043C27.3937 16.9488 27.4423 15.7973 27.6067 14.7608C29.9317 14.5921 31.0173 13.5141 31.4154 12.1076C31.6124 11.4234 31.6457 10.6623 31.577 9.89236C31.5694 9.79918 31.5597 9.706 31.5486 9.61282C31.5382 9.52644 31.5264 9.43939 31.5139 9.35301C31.4938 9.21358 31.4709 9.07483 31.4452 8.93608C31.6866 8.8293 31.9363 8.73952 32.1944 8.66675C32.1673 8.76469 32.1527 8.87691 32.1472 8.99866C32.1049 9.97262 32.6799 11.5723 32.6799 11.5723C34.1872 11.4805 35.186 11.0146 35.8193 10.3256C37.1191 12.13 38.3372 14.3364 39.1126 16.925C39.2909 17.4984 39.4352 18.0472 39.551 18.5716C40.7434 23.893 39.062 26.7319 39.062 26.7319C39.594 27.559 40.3549 27.9841 40.8446 27.7501C41.2872 27.5461 41.4308 26.853 41.1942 26.0409C41.1942 26.0409 45.9373 31.5779 43.5345 38.5113Z"
            fill="#FC5029" stroke="#191C20" stroke-width="0.523188" stroke-miterlimit="10"
            stroke-linejoin="round" />
        <path
            d="M43.5345 38.5112C43.4693 38.7002 43.3986 38.89 43.3223 39.0811C42.8243 39.8245 42.2173 40.419 41.5202 40.8529L41.4855 40.8747C39.277 42.2274 36.173 41.9819 32.7756 39.7647C27.2647 36.1681 22.7645 28.2785 22.3067 21.3995C22.0056 16.8725 23.4123 13.7058 25.8143 12.3612C26.1931 12.1483 26.5975 11.9817 27.0233 11.862C26.9824 12.0102 26.9692 12.1905 26.9755 12.3884C27.0053 13.3671 27.5089 14.7675 27.5089 14.7675C27.5415 14.7655 27.5748 14.7634 27.6067 14.7607C29.9317 14.592 31.0173 13.514 31.4154 12.1075C31.6124 11.4233 31.6457 10.6622 31.577 9.89227C31.5694 9.79909 31.5597 9.70591 31.5486 9.61273C31.5382 9.52635 31.5264 9.4393 31.5139 9.35292C31.4938 9.21349 31.4709 9.07474 31.4452 8.93599C31.0145 6.59835 29.8894 4.44775 29.8894 4.44775C29.8894 4.44775 33.0413 6.46981 35.8193 10.3255C37.1191 12.1299 38.3372 14.3363 39.1126 16.9249C39.2909 17.4983 39.4352 18.0471 39.551 18.5715C40.7434 23.8929 39.062 26.7318 39.062 26.7318C39.594 27.5589 40.3549 27.984 40.8446 27.75C41.2872 27.546 41.4308 26.8529 41.1942 26.0408C41.1942 26.0408 45.9373 31.5778 43.5345 38.5112Z"
            fill="#FC5029" stroke="#191C20" stroke-width="0.523188" stroke-miterlimit="10"
            stroke-linejoin="round" />
        <path
            d="M33.6245 40.2216C33.6245 40.2829 33.6239 40.3434 33.6225 40.4039C33.5906 40.3869 33.5587 40.3686 33.5261 40.3502C32.8616 39.9707 32.2255 39.4592 31.6401 38.8546C30.4047 37.5793 29.3934 35.8885 28.8087 34.1405C28.4577 33.0904 28.26 32.0198 28.26 31.0064C28.26 28.2573 29.0348 26.8855 29.2637 26.459C29.2907 26.4087 29.3102 26.372 29.3199 26.3468L29.2637 27.2038C29.2776 27.6533 29.3192 28.1342 29.3955 28.6464C29.7139 30.784 30.5566 32.4293 31.4729 33.8895C32.3302 35.2566 33.0357 36.7706 33.3859 38.271C33.5392 38.9287 33.6245 39.583 33.6245 40.2216Z"
            fill="#FC5029" stroke="#191C20" stroke-width="0.523188" stroke-miterlimit="10"
            stroke-linejoin="round" />
        <path
            d="M33.6246 40.2218C33.6246 40.283 33.6239 40.3435 33.6225 40.4041C33.5879 41.863 33.1322 42.9553 32.3934 43.5885C32.1853 43.7674 31.9558 43.9095 31.706 44.0129C31.6984 44.0176 31.6943 44.0204 31.6866 44.0204C30.8515 44.3652 29.8069 44.2863 28.6652 43.7089C28.5604 43.6585 28.4592 43.6055 28.3544 43.5456C25.446 41.8834 23.0884 37.7032 23.0884 34.2019C23.0884 31.1304 24.0553 29.7782 24.1489 29.5422C24.1482 29.5647 24.1496 29.5926 24.1524 29.6252C24.1684 29.8442 24.2488 30.2863 24.3744 30.7957C24.708 32.1206 25.3448 33.8992 25.9274 33.4197C26.3082 33.1048 25.908 31.7935 25.5896 30.2441C25.4904 29.7803 25.3996 29.294 25.3385 28.807C25.2997 28.4955 25.2726 28.1833 25.2636 27.8773C25.2074 25.7845 26.2423 24.5194 27.3806 23.7624C27.4909 23.689 27.6025 23.6203 27.7135 23.5563C28.9218 22.8606 30.1384 22.6932 30.2189 22.6837C30.1676 22.7667 29.363 24.0535 29.2672 26.3796C29.2659 26.4054 29.2645 26.4326 29.2638 26.4592C29.2555 26.6965 29.2548 26.9448 29.2638 27.2039C29.2776 27.6535 29.3193 28.1344 29.3956 28.6465C29.7139 30.7842 30.5567 32.4294 31.473 33.8897C32.3303 35.2568 33.0357 36.7708 33.386 38.2711C33.5393 38.9288 33.6246 39.5831 33.6246 40.2218Z"
            fill="#FC5029" stroke="#191C20" stroke-width="0.523188" stroke-miterlimit="10"
            stroke-linejoin="round" />
        <path
            d="M38.7955 37.0265C38.7955 38.9962 38.0499 40.3299 36.877 40.8176L36.8673 40.8237L32.3933 43.5885C33.1321 42.9552 33.5878 41.8629 33.6224 40.404C33.6238 40.3435 33.6245 40.283 33.6245 40.2218C33.6245 39.5831 33.5392 38.9288 33.3859 38.2711C33.0356 36.7707 32.3302 35.2568 31.4729 33.8897C30.5566 32.4294 29.7138 30.7842 29.3955 28.6465C29.3192 28.1343 29.2775 27.6535 29.2637 27.2039L29.3199 26.3469L29.2671 26.3796C29.3629 24.0535 30.1675 22.7667 30.2188 22.6837L31.0019 22.1994L35.3898 19.4884C35.3239 19.5959 34.0074 21.7002 34.5665 25.4512C34.8849 27.5889 35.7283 29.2341 36.6439 30.6951C37.8772 32.6613 38.7955 34.9303 38.7955 37.0265Z"
            fill="#FC5029" stroke="#191C20" stroke-width="0.523188" stroke-miterlimit="10"
            stroke-linejoin="round" />
        <path
            d="M25.9274 33.4197C25.3447 33.8991 24.708 32.1206 24.3744 30.7957C24.2488 30.2862 24.1683 29.8442 24.1524 29.6252L24.1489 29.5422L25.3385 28.8069C25.3995 29.2939 25.4904 29.7802 25.5896 30.2441C25.908 31.7934 26.3082 33.1047 25.9274 33.4197Z"
            fill="#FC5029" stroke="#191C20" stroke-width="0.523188" stroke-miterlimit="10"
            stroke-linejoin="round" />
        <path
            d="M48.4932 35.8858C48.0458 36.5543 47.5089 37.1032 46.8978 37.5222L46.4539 37.7976L46.4477 37.801L41.5201 40.8528C42.2172 40.4189 42.8241 39.8245 43.3222 39.0811C43.3984 38.8899 43.4692 38.7002 43.5344 38.5111C45.9371 31.5778 41.1941 26.0408 41.1941 26.0408L44.5575 23.9622L46.3651 22.8455C46.3651 22.8455 51.371 28.6885 48.4932 35.8858Z"
            fill="#FC5029" stroke="#191C20" stroke-width="0.523188" stroke-miterlimit="10"
            stroke-linejoin="round" />
        <path
            d="M44.233 23.5365L39.062 26.7318C39.062 26.7318 40.7433 23.8929 39.551 18.5715C39.4352 18.0471 39.2909 17.4982 39.1126 16.9249C38.3371 14.3363 37.1191 12.1299 35.8193 10.3255C33.0413 6.46979 29.8894 4.44774 29.8894 4.44774L35.0604 1.25244C35.0604 1.25244 41.8525 5.60941 44.2836 13.7296C44.4626 14.303 44.6062 14.8518 44.7227 15.3762C45.9151 20.6976 44.233 23.5365 44.233 23.5365Z"
            fill="#FC5029" stroke="#191C20" stroke-width="0.523188" stroke-miterlimit="10"
            stroke-linejoin="round" />
        <path
            d="M35.3898 19.4884L31.0019 22.1994L30.2188 22.6837C30.1383 22.6932 28.9217 22.8605 27.7134 23.5563L32.6257 20.5188L32.6395 20.51L32.6513 20.5025C33.9311 19.6877 35.3052 19.4986 35.3898 19.4884Z"
            stroke="#191C20" stroke-width="0.523188" stroke-miterlimit="10" stroke-linejoin="round" />
        <path d="M27.7133 23.5564L27.3804 23.7625" stroke="#191C20" stroke-width="0.523188"
            stroke-miterlimit="10" stroke-linejoin="round" />
        <path d="M32.7733 20.4275L32.6396 20.5097" stroke="#191C20" stroke-width="0.523188"
            stroke-miterlimit="10" stroke-linejoin="round" />
        <circle cx="6.40727" cy="15.6755" r="0.907884" fill="white" stroke="#191C20"
            stroke-width="0.523188" stroke-miterlimit="10" />
        <circle cx="60.4478" cy="6.78377" r="0.829664" fill="white" stroke="#191C20"
            stroke-width="0.523188" stroke-miterlimit="10" />
        <circle cx="57.0741" cy="21.3369" r="0.826998" fill="white" stroke="#191C20"
            stroke-width="0.523188" stroke-miterlimit="10" />
        <path
            d="M52.4027 9.35278L52.8731 10.6242C53.2336 11.5982 54.0016 12.3662 54.9756 12.7267L56.247 13.1971L54.9756 13.6676C54.0016 14.028 53.2336 14.796 52.8731 15.7701L52.4027 17.0415L51.9322 15.7701C51.5718 14.796 50.8038 14.028 49.8297 13.6676L48.5583 13.1971L49.8297 12.7267C50.8038 12.3662 51.5718 11.5982 51.9322 10.6242L52.4027 9.35278Z"
            fill="white" stroke="#191C20" stroke-width="0.523188" stroke-miterlimit="10" />
        <path
            d="M18.2744 0.989929L18.9933 2.93271C19.5441 4.42118 20.7177 5.59475 22.2061 6.14554L24.1489 6.86443L22.2061 7.58332C20.7177 8.13411 19.5441 9.30768 18.9933 10.7962L18.2744 12.7389L17.5555 10.7962C17.0047 9.30768 15.8312 8.13411 14.3427 7.58332L12.3999 6.86443L14.3427 6.14554C15.8312 5.59475 17.0047 4.42118 17.5555 2.93271L18.2744 0.989929Z"
            fill="white" stroke="#191C20" stroke-width="0.523188" stroke-miterlimit="10" />
        <path
            d="M12.8817 21.3368L13.1905 22.1714C13.4271 22.8109 13.9313 23.3151 14.5708 23.5517L15.4054 23.8605L14.5708 24.1694C13.9313 24.406 13.4271 24.9102 13.1905 25.5497L12.8817 26.3843L12.5728 25.5497C12.3362 24.9102 11.832 24.406 11.1925 24.1694L10.3579 23.8605L11.1925 23.5517C11.832 23.3151 12.3362 22.8109 12.5728 22.1714L12.8817 21.3368Z"
            fill="white" stroke="#191C20" stroke-width="0.523188" stroke-miterlimit="10" />
        <g clip-path="url(#clip1_871_4251)">
            <path
                d="M54.1405 48.3821L50.6304 45.0627L47.1204 52.3125L49.4603 51.0103L49.4606 56.2185L51.8002 54.9166V49.6964L54.1405 48.3821Z"
                fill="#FC5029" stroke="#191C20" stroke-width="0.523188" stroke-miterlimit="10"
                stroke-linejoin="round" />
            <path
                d="M49.4605 56.2187L51.8004 57.5698L51.8001 52.3616L49.4602 51.0104L49.4605 56.2187Z"
                fill="#FC5029" stroke="#191C20" stroke-width="0.523188" stroke-miterlimit="10"
                stroke-linejoin="round" />
            <path
                d="M56.4803 49.7333L52.9703 46.4139L49.4602 53.6636L51.8001 52.3614L51.8004 57.5697L54.1401 56.2677V51.0475L56.4803 49.7333Z"
                fill="#FC5029" stroke="#191C20" stroke-width="0.523188" stroke-miterlimit="10"
                stroke-linejoin="round" />
            <path
                d="M50.6304 45.0627L52.9703 46.4139L49.4603 53.6637L47.1204 52.3125L50.6304 45.0627Z"
                fill="#FC5029" stroke="#191C20" stroke-width="0.523188" stroke-miterlimit="10"
                stroke-linejoin="round" />
        </g>
        <g clip-path="url(#clip2_871_4251)">
            <path
                d="M60.3055 40.4558L57.1855 37.6896L54.0654 43.7311L56.1454 42.6459L56.1456 46.9861L58.2253 45.9012V41.551L60.3055 40.4558Z"
                fill="#FC5029" stroke="#191C20" stroke-width="0.523188" stroke-miterlimit="10"
                stroke-linejoin="round" />
            <path
                d="M56.1455 46.9863L58.2255 48.1123L58.2252 43.7721L56.1453 42.6461L56.1455 46.9863Z"
                fill="#FC5029" stroke="#191C20" stroke-width="0.523188" stroke-miterlimit="10"
                stroke-linejoin="round" />
            <path
                d="M62.3853 41.5819L59.2653 38.8157L56.1453 44.8572L58.2252 43.772L58.2255 48.1122L60.3051 47.0273V42.6771L62.3853 41.5819Z"
                fill="#FC5029" stroke="#191C20" stroke-width="0.523188" stroke-miterlimit="10"
                stroke-linejoin="round" />
            <path
                d="M57.1855 37.6896L59.2654 38.8156L56.1454 44.8571L54.0654 43.7311L57.1855 37.6896Z"
                fill="#FC5029" stroke="#191C20" stroke-width="0.523188" stroke-miterlimit="10"
                stroke-linejoin="round" />
        </g>
    </g>
    <defs>
        <clipPath id="clip0_871_4251">
            <rect width="69.0609" height="66.9681" fill="white" />
        </clipPath>
        <clipPath id="clip1_871_4251">
            <rect width="9.41739" height="12.5565" fill="white"
                transform="translate(47.0869 45.0384)" />
        </clipPath>
        <clipPath id="clip2_871_4251">
            <rect width="8.37101" height="10.4638" fill="white"
                transform="translate(54.0359 37.6696)" />
        </clipPath>
    </defs>
</svg>