<svg width="221" height="150" viewBox="0 0 221 150" fill="none" xmlns="http://www.w3.org/2000/svg">
    <path
        d="M105.116 108.164V115.546L70.3841 135.541L60.1721 141.422C58.5399 142.361 56.6211 143.041 54.5759 143.459C49.2353 144.551 43.0182 143.873 38.7621 141.422L38.0541 141.016C35.1549 139.346 33.6828 137.152 33.6406 134.953V134.933C33.6434 134.858 33.6434 134.771 33.6434 134.681V134.642C33.6547 133.048 33.6743 129.658 33.6631 127.885C33.7558 129.005 34.2194 130.12 35.0537 131.154C35.7785 132.053 36.7815 132.894 38.0625 133.631L38.7705 134.04C43.0267 136.488 49.2353 137.169 54.5759 136.077C56.6267 135.659 58.5483 134.981 60.1805 134.04L70.3644 128.176L105.116 108.164Z"
        fill="#FC5029" stroke="#191C20" stroke-width="0.5" stroke-miterlimit="10"
        stroke-linejoin="round" />
    <path
        d="M54.5755 111.795V143.459C49.2349 144.551 43.0178 143.873 38.7616 141.422L38.0537 141.016C35.1544 139.346 33.6996 137.133 33.6574 134.933C33.6574 134.933 33.5937 128.047 33.6571 127.173C33.7779 125.038 35.2471 122.923 38.0621 121.304L54.5755 111.795Z"
        fill="#191C20" stroke="#191C20" stroke-width="0.5" stroke-miterlimit="10"
        stroke-linejoin="round" />
    <path
        d="M59.7454 132.07V141.529L57.6917 142.576C57.7002 139.87 57.7058 137.206 57.6945 135.197C57.6945 135.026 57.6917 134.858 57.6917 134.695V134.659C57.6524 134.2 57.6412 133.734 57.6552 133.275L59.7454 132.07Z"
        fill="#191C20" stroke="#191C20" stroke-width="0.5" stroke-miterlimit="10"
        stroke-linejoin="round" />
    <path
        d="M187.359 74.1973V82.5965C187.359 96.6802 166.466 108.144 140.41 108.539C139.946 108.548 139.482 108.551 139.016 108.551C138.803 108.551 138.586 108.551 138.373 108.545C137.662 108.542 136.954 108.531 136.249 108.509C124.705 108.158 114.243 105.634 106.262 101.684C103.416 100.277 100.888 98.6889 98.7357 96.9519C93.6395 92.8392 90.6729 87.9055 90.6729 82.5965V74.1973C90.6729 75.6289 90.8892 77.0297 91.3021 78.3969C92.159 81.2181 93.8587 83.8852 96.2635 86.3226C96.491 86.5524 96.727 86.7821 96.9686 87.0118C98.0558 88.0344 99.2666 89.0178 100.595 89.9479C101.011 90.2365 101.435 90.5251 101.871 90.8052C102.017 90.9005 102.163 90.9929 102.312 91.0854C103.051 91.5476 103.821 91.9959 104.616 92.4301C105.093 92.6879 105.582 92.9428 106.082 93.1922C106.414 93.3575 106.748 93.5228 107.091 93.6825C107.431 93.845 107.776 94.0019 108.125 94.1587C108.473 94.3128 108.827 94.4669 109.184 94.6182C109.363 94.6938 109.543 94.7667 109.723 94.8423C110.265 95.0637 110.816 95.2794 111.375 95.4895C111.934 95.6996 112.504 95.9013 113.08 96.1003C113.656 96.2964 114.24 96.4869 114.833 96.6718C115.03 96.7334 115.229 96.7923 115.429 96.8539C116.595 97.2041 117.791 97.5291 119.014 97.8289C124.318 99.1232 130.13 99.9189 136.249 100.104C136.951 100.126 137.662 100.137 138.373 100.14C138.586 100.146 138.803 100.146 139.016 100.146C139.482 100.146 139.946 100.143 140.41 100.135C144.733 100.07 148.913 99.7003 152.88 99.0644C153.366 98.9859 153.852 98.9019 154.333 98.8178C154.816 98.731 155.293 98.6413 155.768 98.5461C158.139 98.0754 160.423 97.5095 162.603 96.8539C162.803 96.7923 163.002 96.7334 163.199 96.6718C163.792 96.4869 164.376 96.2964 164.952 96.1003C165.528 95.9013 166.098 95.6996 166.657 95.4895C167.216 95.2794 167.767 95.0637 168.309 94.8423C168.489 94.7667 168.669 94.6938 168.849 94.6182C169.205 94.4669 169.559 94.3128 169.908 94.1587C170.256 94.0019 170.602 93.845 170.942 93.6825C171.284 93.5228 171.619 93.3575 171.95 93.1922C172.45 92.9428 172.939 92.6879 173.417 92.4301C174.212 91.9959 174.981 91.5476 175.72 91.0854C175.869 90.9929 176.015 90.9005 176.161 90.8052C176.597 90.5251 177.021 90.2365 177.437 89.9479C178.766 89.0178 179.976 88.0344 181.064 87.0118C181.305 86.7821 181.541 86.5524 181.769 86.3226C184.174 83.8852 185.873 81.2181 186.73 78.3969C187.143 77.0297 187.359 75.6289 187.359 74.1973Z"
        fill="#FC5029" stroke="#191C20" stroke-width="0.5" stroke-miterlimit="10"
        stroke-linejoin="round" />
    <path
        d="M140.41 97.3413V108.539C139.946 108.548 139.483 108.551 139.016 108.551C138.803 108.551 138.587 108.551 138.373 108.545V97.3413H140.41Z"
        fill="#191C20" stroke="#191C20" stroke-width="0.5" stroke-miterlimit="10"
        stroke-linejoin="round" />
    <path
        d="M136.249 90.6062V108.508C124.705 108.158 114.243 105.634 106.262 101.684C103.416 100.277 100.888 98.6888 98.7357 96.9518C93.6395 92.839 90.6729 87.9054 90.6729 82.5963V74.1943C90.6729 71.303 91.555 68.5239 93.1788 65.9268H110.352C110.243 66.0192 110.136 66.1145 110.029 66.2097C109.923 66.305 109.819 66.3974 109.717 66.4955C109.521 66.6776 109.333 66.8625 109.15 67.0502C108.759 67.4508 108.403 67.8599 108.08 68.2773C106.65 70.1152 105.871 72.1099 105.871 74.1971C105.871 75.357 106.113 76.4888 106.571 77.5815C109.529 84.6107 121.522 90.001 136.249 90.6062Z"
        fill="#191C20" stroke="#191C20" stroke-width="0.5" stroke-miterlimit="10"
        stroke-linejoin="round" />
    <path
        d="M106.807 101.37L106.262 101.684L86.8441 112.851L78.4779 117.662L74.542 110.865L84.032 105.407L98.7361 96.9521L102.871 94.5735C104.301 93.7498 106.341 94.6071 107.428 96.4814C108.513 98.3585 108.234 100.547 106.807 101.37Z"
        fill="#FC5029" stroke="#191C20" stroke-width="0.5" stroke-miterlimit="10"
        stroke-linejoin="round" />
    <path
        d="M139.016 48.2432C117.704 48.2432 99.6122 55.6478 93.1788 65.9269C91.555 68.524 90.6729 71.3032 90.6729 74.1945C90.6729 75.6289 90.8892 77.0297 91.3021 78.3969C92.159 81.2181 93.8587 83.8853 96.2635 86.3227C96.491 86.5524 96.727 86.7821 96.9686 87.0119C98.0558 88.0372 99.2666 89.0206 100.595 89.9507C101.011 90.2421 101.435 90.5251 101.871 90.8052C102.017 90.9005 102.163 90.9929 102.312 91.0854C103.051 91.5477 103.821 91.9959 104.616 92.4302C105.093 92.6879 105.582 92.9429 106.082 93.1922C106.414 93.3575 106.748 93.5228 107.091 93.6825C107.431 93.845 107.776 94.0019 108.125 94.1588C108.473 94.3129 108.827 94.4669 109.184 94.6182C109.363 94.6939 109.543 94.7667 109.723 94.8424C110.265 95.0637 110.816 95.2794 111.375 95.4895C111.934 95.6996 112.504 95.9014 113.08 96.1003C113.656 96.2964 114.24 96.4869 114.833 96.6718C115.03 96.7334 115.229 96.7923 115.429 96.8539C116.595 97.2041 117.791 97.5291 119.014 97.8289C121.334 98.3948 123.75 98.8683 126.25 99.2325C127.321 99.3922 128.405 99.5295 129.506 99.6443C129.872 99.6835 130.24 99.72 130.608 99.7564C132.453 99.9301 134.336 100.048 136.249 100.107C137.165 100.135 138.089 100.149 139.016 100.149C142.93 100.149 146.739 99.8993 150.383 99.4258C150.945 99.353 151.501 99.2745 152.054 99.1933C152.33 99.1512 152.605 99.1092 152.88 99.0644C153.366 98.9859 153.852 98.9019 154.333 98.8178C154.816 98.731 155.293 98.6413 155.768 98.5461C158.139 98.0754 160.423 97.5095 162.603 96.8539C162.803 96.7923 163.002 96.7334 163.199 96.6718C163.792 96.4869 164.376 96.2964 164.952 96.1003C165.528 95.9014 166.098 95.6996 166.657 95.4895C167.216 95.2794 167.767 95.0637 168.309 94.8424C168.489 94.7667 168.669 94.6939 168.849 94.6182C169.205 94.4669 169.559 94.3129 169.908 94.1588C170.256 94.0019 170.602 93.845 170.942 93.6825C171.284 93.5228 171.619 93.3575 171.95 93.1922C172.45 92.9429 172.939 92.6879 173.417 92.4302C174.212 91.9959 174.981 91.5477 175.72 91.0854C175.869 90.9929 176.015 90.9005 176.161 90.8052C176.597 90.5251 177.021 90.2421 177.437 89.9507C178.766 89.0206 179.976 88.0372 181.064 87.0119C181.305 86.7821 181.541 86.5524 181.769 86.3227C184.174 83.8853 185.873 81.2181 186.73 78.3969C187.143 77.0297 187.359 75.6289 187.359 74.1973C187.357 59.8614 165.713 48.2432 139.016 48.2432ZM171.461 77.5816C168.32 85.0479 154.987 90.6624 139.016 90.6624C138.083 90.6624 137.159 90.6427 136.249 90.6063C121.522 90.0012 109.529 84.6109 106.571 77.5816C106.113 76.489 105.871 75.3572 105.871 74.1973C105.871 72.1101 106.65 70.1153 108.08 68.2775C108.403 67.86 108.759 67.451 109.15 67.0504C109.333 66.8627 109.521 66.6778 109.717 66.4957C109.819 66.3976 109.923 66.3051 110.029 66.2099C110.136 66.1146 110.243 66.0194 110.352 65.9269C110.622 65.6972 110.903 65.4703 111.192 65.2489C111.386 65.0977 111.586 64.952 111.788 64.8091C111.824 64.7811 111.861 64.7559 111.897 64.7306C111.999 64.6578 112.103 64.5878 112.207 64.5149C112.715 64.1703 113.246 63.8341 113.805 63.5119C114.01 63.3887 114.221 63.271 114.434 63.1533C114.623 63.0497 114.811 62.9488 115.005 62.848C115.111 62.7919 115.221 62.7359 115.33 62.6799C115.522 62.5846 115.715 62.4894 115.909 62.3941C116.17 62.268 116.432 62.1448 116.701 62.0243C117.002 61.887 117.308 61.7525 117.623 61.6237C117.777 61.5564 117.935 61.492 118.095 61.4275C118.252 61.3631 118.412 61.2987 118.572 61.237C119.736 60.7832 120.963 60.3685 122.247 59.9931C122.506 59.9175 122.767 59.8446 123.028 59.7718C123.641 59.6037 124.27 59.444 124.908 59.2955C125.062 59.2591 125.217 59.2227 125.371 59.1891C125.762 59.0994 126.155 59.0154 126.554 58.9369C127.023 58.8417 127.501 58.752 127.981 58.668C128.088 58.6483 128.197 58.6287 128.31 58.6119C128.998 58.4943 129.695 58.3878 130.403 58.2953C130.681 58.2561 130.962 58.2225 131.243 58.1889C131.274 58.1833 131.302 58.1805 131.333 58.1777C131.613 58.1441 131.897 58.1132 132.181 58.0852C132.313 58.0684 132.442 58.0572 132.574 58.0432C132.838 58.018 133.105 57.9928 133.372 57.9704C133.757 57.9367 134.145 57.9087 134.535 57.8807C135.263 57.8331 135.999 57.7967 136.741 57.7714C137.007 57.7602 137.277 57.7546 137.547 57.749C137.597 57.7462 137.648 57.7462 137.699 57.7462C137.847 57.7434 137.996 57.7406 138.145 57.7378C138.435 57.735 138.724 57.7322 139.016 57.7322C153.122 57.7322 165.168 62.1111 169.953 68.2775C171.383 70.1153 172.161 72.1101 172.161 74.1973C172.161 75.3572 171.919 76.489 171.461 77.5816Z"
        fill="#FC5029" stroke="#191C20" stroke-width="0.5" stroke-miterlimit="10"
        stroke-linejoin="round" />
    <path
        d="M172.161 74.1975C172.161 75.3574 171.92 76.4892 171.462 77.5818C168.321 70.1127 154.988 64.4983 139.017 64.4983C123.046 64.4983 109.712 70.1127 106.572 77.5818C106.114 76.4892 105.872 75.3574 105.872 74.1975C105.872 72.1103 106.65 70.1155 108.08 68.2777C112.865 62.1113 124.911 57.7324 139.017 57.7324C153.122 57.7324 165.169 62.1113 169.953 68.2777C171.383 70.1155 172.161 72.1103 172.161 74.1975Z"
        fill="#FC5029" stroke="#191C20" stroke-width="0.5" stroke-miterlimit="10"
        stroke-linejoin="round" />
    <path
        d="M105.116 108.158L83.0034 95.4277L54.5756 111.795L38.0623 121.303C35.2473 122.923 33.778 125.038 33.6572 127.173C33.66 127.358 33.6628 127.593 33.6628 127.87V127.884C33.7556 129.005 34.2191 130.12 35.0535 131.154C35.7783 132.053 36.7812 132.894 38.0623 133.631L38.7702 134.04C43.0264 136.488 49.2351 137.169 54.5756 136.076C56.6265 135.659 58.548 134.981 60.1803 134.04L105.116 108.164H105.121L105.116 108.158ZM56.0758 126.562C55.8623 127.072 55.3257 127.523 54.5756 127.859C53.7104 128.249 52.5641 128.487 51.3027 128.487C48.9513 128.487 46.9904 127.66 46.5297 126.562C46.4622 126.4 46.4257 126.234 46.4257 126.063C46.4257 125.755 46.5409 125.464 46.7516 125.192C47.4539 124.284 49.2266 123.64 51.3027 123.64C52.5613 123.64 53.7104 123.878 54.5756 124.268C55.1375 124.52 55.5786 124.836 55.8539 125.192C56.0646 125.464 56.177 125.755 56.177 126.063C56.177 126.234 56.1432 126.4 56.0758 126.562Z"
        fill="#FC5029" stroke="#191C20" stroke-width="0.5" stroke-miterlimit="10"
        stroke-linejoin="round" />
    <path
        d="M33.6632 127.87C33.6435 127.638 33.6407 127.405 33.6576 127.173C33.6604 127.358 33.6632 127.593 33.6632 127.87Z"
        fill="#FC5029" stroke="#191C20" stroke-width="0.5" stroke-miterlimit="10"
        stroke-linejoin="round" />
    <path
        d="M56.177 126.064C56.177 126.234 56.1433 126.4 56.0759 126.562C55.6123 127.66 53.6514 128.487 51.3028 128.487C48.9542 128.487 46.9905 127.66 46.5297 126.562C46.4623 126.4 46.4258 126.234 46.4258 126.064C46.4258 125.755 46.541 125.464 46.7517 125.192C47.454 124.285 49.2267 123.64 51.3028 123.64C53.3789 123.64 55.1488 124.285 55.854 125.192C56.0647 125.464 56.177 125.755 56.177 126.064Z"
        fill="#FC5029" stroke="#191C20" stroke-width="0.5" stroke-miterlimit="10"
        stroke-linejoin="round" />
    <mask id="mask0_871_4929" style="mask-type:alpha" maskUnits="userSpaceOnUse" x="101" y="-12"
        width="81" height="103">
        <path
            d="M129.113 -11.0827C90.6827 -13.5757 108.206 50.4622 103.156 59.7112C101.882 62.048 101.189 64.5487 101.189 67.1502C101.189 68.4409 101.359 69.7013 101.683 70.9315C102.356 73.47 103.69 75.8698 105.577 78.063C105.756 78.2697 105.941 78.4764 106.131 78.6831C106.984 79.6057 107.934 80.4906 108.977 81.3275C109.304 81.5896 109.637 81.8443 109.978 82.0963C110.093 82.1821 110.208 82.2652 110.325 82.3484C110.904 82.7644 111.509 83.1677 112.133 83.5584C112.507 83.7904 112.891 84.0198 113.284 84.2441C113.544 84.3928 113.806 84.5416 114.075 84.6853C114.342 84.8315 114.613 84.9726 114.887 85.1138C115.16 85.2525 115.438 85.3911 115.718 85.5272C115.859 85.5953 116 85.6608 116.141 85.7289C116.567 85.928 116.999 86.1222 117.438 86.3112C117.877 86.5003 118.324 86.6818 118.776 86.8608C119.228 87.0372 119.687 87.2086 120.152 87.375C120.306 87.4305 120.463 87.4834 120.62 87.5389C121.535 87.854 122.474 88.1464 123.433 88.4161C125.254 88.9253 127.151 89.3514 129.113 89.6791C129.953 89.8228 130.804 89.9463 131.669 90.0496C131.955 90.0849 132.244 90.1177 132.533 90.1505C133.982 90.3068 135.459 90.4126 136.96 90.4656C137.679 90.4908 138.405 90.5034 139.132 90.5034C142.204 90.5034 145.194 90.279 148.054 89.853C148.495 89.7875 148.931 89.7169 149.366 89.6438C149.582 89.606 149.798 89.5682 150.014 89.5278C150.395 89.4572 150.777 89.3816 151.154 89.306C151.533 89.2278 151.908 89.1472 152.281 89.0615C154.141 88.638 155.934 88.1287 157.645 87.5389C157.802 87.4834 157.958 87.4305 158.113 87.375C158.578 87.2086 159.037 87.0372 159.489 86.8608C159.941 86.6818 160.388 86.5003 160.827 86.3112C161.266 86.1222 161.698 85.928 162.123 85.7289C162.265 85.6608 162.406 85.5953 162.547 85.5272C162.827 85.3911 163.105 85.2525 163.378 85.1138C163.651 84.9726 163.923 84.8315 164.189 84.6853C164.458 84.5416 164.721 84.3928 164.981 84.2441C165.374 84.0198 165.757 83.7904 166.132 83.5584C197.449 65.3647 180.182 -18.0631 129.113 -11.0827Z"
            fill="#191C20" />
    </mask>
    <g mask="url(#mask0_871_4929)">
        <path
            d="M117.747 9.4414V71.1231C117.747 73.0514 121.499 74.6157 126.128 74.6157C130.758 74.6157 134.51 73.0514 134.51 71.1231V9.4414H117.745H117.747Z"
            fill="#5A6CFE" stroke="#191C20" stroke-width="0.5" stroke-miterlimit="10"
            stroke-linecap="round" stroke-linejoin="round" />
        <path
            d="M126.127 12.684C130.756 12.684 134.509 11.1203 134.509 9.19137C134.509 7.26244 130.756 5.69873 126.127 5.69873C121.499 5.69873 117.746 7.26244 117.746 9.19137C117.746 11.1203 121.499 12.684 126.127 12.684Z"
            fill="#5A6CFE" stroke="#191C20" stroke-width="0.5" stroke-miterlimit="10"
            stroke-linecap="round" stroke-linejoin="round" />
        <path
            d="M132.621 28.4297V79.3471C132.621 81.2754 136.373 82.8398 141.002 82.8398C145.632 82.8398 149.384 81.2754 149.384 79.3471V28.4297H132.619H132.621Z"
            fill="#5A6CFE" stroke="#191C20" stroke-width="0.5" stroke-miterlimit="10"
            stroke-linecap="round" stroke-linejoin="round" />
        <path
            d="M141.001 32.1703C145.63 32.1703 149.383 30.6066 149.383 28.6777C149.383 26.7488 145.63 25.1851 141.001 25.1851C136.373 25.1851 132.62 26.7488 132.62 28.6777C132.62 30.6066 136.373 32.1703 141.001 32.1703Z"
            fill="#5A6CFE" stroke="#191C20" stroke-width="0.5" stroke-miterlimit="10"
            stroke-linecap="round" stroke-linejoin="round" />
        <path
            d="M146.313 47.2866V87.8815C146.313 89.8098 150.065 91.3741 154.694 91.3741C159.323 91.3741 163.075 89.8098 163.075 87.8815V47.2866H146.311H146.313Z"
            fill="#5A6CFE" stroke="#191C20" stroke-width="0.5" stroke-miterlimit="10"
            stroke-linecap="round" stroke-linejoin="round" />
        <path
            d="M154.693 50.977C159.322 50.977 163.074 49.4133 163.074 47.4843C163.074 45.5554 159.322 43.9917 154.693 43.9917C150.064 43.9917 146.312 45.5554 146.312 47.4843C146.312 49.4133 150.064 50.977 154.693 50.977Z"
            fill="#5A6CFE" stroke="#191C20" stroke-width="0.5" stroke-miterlimit="10"
            stroke-linecap="round" stroke-linejoin="round" />
    </g>
</svg>