<svg width="143" height="144" viewBox="0 0 143 144" fill="none" xmlns="http://www.w3.org/2000/svg">
    <path d="M133.014 36.7244V107.525L71.5 143V72.199L133.014 36.7244Z" fill="#191C20"
        stroke="#191C20" stroke-width="1.5" stroke-linecap="round" stroke-linejoin="round" />
    <path d="M71.4995 72.199L71.4995 142.999L9.98536 107.524L9.98535 36.7244L71.4995 72.199Z"
        fill="#5A6CFE" stroke="#191C20" stroke-width="1.5" stroke-linecap="round"
        stroke-linejoin="round" />
    <path d="M133.014 36.4746L71.4995 71.9492L9.98535 36.4746L71.4995 1L133.014 36.4746Z"
        fill="#5A6CFE" stroke="#191C20" stroke-width="1.5" stroke-linecap="round"
        stroke-linejoin="round" />
    <path
        d="M106.565 1.07007L49.5164 29.9745L45.993 31.76L45.1652 32.1771L21.5195 18.5371L106.565 1.07007Z"
        fill="white" stroke="#191C20" stroke-width="1.5" stroke-linecap="round"
        stroke-linejoin="round" />
    <path d="M49.023 51.4907L45.1699 32.2401L106.546 1L49.023 51.4907Z" fill="white"
        stroke="#191C20" stroke-width="1.5" stroke-linecap="round" stroke-linejoin="round" />
    <path d="M49.5171 51.415L49.4292 51.8029L49.3633 51.5028L49.5171 51.415Z" fill="#5A6CFE"
        stroke="#191C20" stroke-width="1.5" stroke-linecap="round" stroke-linejoin="round" />
    <path d="M61.148 41.3973L49.4277 51.8029L49.5156 51.4151L52.9219 36.6555L61.148 41.3973Z"
        fill="white" stroke="#191C20" stroke-width="1.5" stroke-linecap="round"
        stroke-linejoin="round" />
    <path d="M106.564 1.07007L79.19 51.8029L61.1481 41.3973L52.9219 36.6555L106.564 1.07007Z"
        fill="white" stroke="#191C20" stroke-width="1.5" stroke-linecap="round"
        stroke-linejoin="round" />
    <path
        d="M116.312 65.4045C115.78 65.1313 115.171 65.022 114.554 65.1157C114.226 65.1703 113.897 65.2796 113.577 65.4669L111.186 66.8484L91.903 77.9708C89.9653 79.0948 88.7308 81.1241 88.637 83.3486C88.637 83.4267 88.6214 83.5125 88.6214 83.5906C88.6214 83.9028 88.6605 84.1994 88.7464 84.4726C88.9261 85.058 89.2934 85.5419 89.7622 85.8853L87.3088 84.3165L86.3165 83.6842C85.8008 83.1769 85.4727 82.4666 85.4727 81.6471C85.4961 79.3211 86.7462 77.1903 88.7542 76.0352L110.436 63.5312C111.249 63.0629 112.163 63.0473 112.929 63.3595L113.671 63.8122L116.312 65.4123V65.4045Z"
        fill="#FC5029" stroke="#191C20" stroke-width="1.5" stroke-linecap="round"
        stroke-linejoin="round" />
    <path
        d="M117.835 67.9412C117.819 69.1042 117.507 70.2125 116.936 71.1804C116.374 72.1482 115.553 72.9756 114.553 73.5532L92.8714 86.0571C91.926 86.6034 90.8634 86.5332 90.0352 86.0571L89.7929 85.901L89.7695 85.8854C89.3007 85.5419 88.9335 85.0502 88.7538 84.4726C88.6678 84.1994 88.621 83.9029 88.6288 83.5906C88.6288 83.5126 88.6288 83.4267 88.6444 83.3487C88.746 81.1242 89.9727 79.0949 91.9104 77.9709L111.194 66.8485L113.584 65.467C113.905 65.2797 114.225 65.1704 114.561 65.1157C115.178 65.0143 115.788 65.1314 116.319 65.4045L116.382 65.4436C117.241 65.9119 117.851 66.8251 117.843 67.9412H117.835Z"
        fill="#FC5029" stroke="#191C20" stroke-width="1.5" stroke-linecap="round"
        stroke-linejoin="round" />
    <path
        d="M116.312 99.2399C115.78 98.9667 115.171 98.8575 114.554 98.9511C114.226 99.0058 113.897 99.115 113.577 99.3024L111.186 100.684L91.903 111.806C89.9653 112.93 88.7308 114.96 88.637 117.184C88.637 117.262 88.6214 117.348 88.6214 117.426C88.6214 117.738 88.6605 118.035 88.7464 118.308C88.9261 118.893 89.2934 119.377 89.7622 119.721L87.3088 118.152L86.3165 117.52C85.8008 117.012 85.4727 116.302 85.4727 115.483C85.4961 113.157 86.7462 111.026 88.7542 109.871L110.436 97.3667C111.249 96.8984 112.163 96.8828 112.929 97.195L113.671 97.6477L116.312 99.2477V99.2399Z"
        fill="#FC5029" stroke="#191C20" stroke-width="1.5" stroke-linecap="round"
        stroke-linejoin="round" />
    <path
        d="M117.835 101.777C117.819 102.94 117.507 104.048 116.936 105.016C116.374 105.984 115.553 106.811 114.553 107.389L92.8714 119.893C91.926 120.439 90.8634 120.369 90.0352 119.893L89.7929 119.736L89.7695 119.721C89.3007 119.377 88.9335 118.886 88.7538 118.308C88.6678 118.035 88.621 117.738 88.6288 117.426C88.6288 117.348 88.6288 117.262 88.6444 117.184C88.746 114.96 89.9727 112.93 91.9104 111.806L111.194 100.684L113.584 99.3024C113.905 99.1151 114.225 99.0058 114.561 98.9512C115.178 98.8497 115.788 98.9668 116.319 99.24L116.382 99.279C117.241 99.7473 117.851 100.661 117.843 101.777H117.835Z"
        fill="#FC5029" stroke="#191C20" stroke-width="1.5" stroke-linecap="round"
        stroke-linejoin="round" />
    <path
        d="M126.097 77.8786C125.566 77.6054 124.956 77.4961 124.339 77.5898C124.011 77.6444 123.683 77.7537 123.362 77.941L120.971 79.3226L101.688 90.445C99.7505 91.5689 98.516 93.5983 98.4222 95.8227C98.4222 95.9008 98.4066 95.9867 98.4066 96.0647C98.4066 96.3769 98.4456 96.6735 98.5316 96.9467C98.7113 97.5321 99.0785 98.016 99.5473 98.3594L97.0939 96.7906L96.1017 96.1584C95.586 95.651 95.2578 94.9408 95.2578 94.1212C95.2813 91.7953 96.5314 89.6644 98.5394 88.5093L120.221 76.0054C121.034 75.537 121.948 75.5214 122.714 75.8336L123.456 76.2863L126.097 77.8864V77.8786Z"
        fill="#FC5029" stroke="#191C20" stroke-width="1.5" stroke-linecap="round"
        stroke-linejoin="round" />
    <path
        d="M127.612 80.4153C127.597 81.5783 127.284 82.6867 126.714 83.6545C126.151 84.6224 125.331 85.4497 124.331 86.0273L102.649 98.5312C101.703 99.0776 100.641 99.0073 99.8125 98.5312L99.5703 98.3751L99.5469 98.3595C99.0781 98.0161 98.7108 97.5243 98.5311 96.9468C98.4452 96.6736 98.3983 96.377 98.4061 96.0648C98.4061 95.9867 98.4061 95.9009 98.4217 95.8228C98.5233 93.5983 99.75 91.569 101.688 90.445L120.971 79.3226L123.362 77.9411C123.682 77.7538 124.003 77.6445 124.338 77.5899C124.956 77.4884 125.565 77.6055 126.096 77.8787L126.159 77.9177C127.018 78.386 127.628 79.2992 127.62 80.4153H127.612Z"
        fill="#FC5029" stroke="#191C20" stroke-width="1.5" stroke-linecap="round"
        stroke-linejoin="round" />
    <path
        d="M55.1795 87.7473L31.4975 101.42C29.64 102.496 26.9816 101.38 25.5639 98.9254C24.1724 96.5099 24.5071 93.6941 26.299 92.5914C26.3187 92.5717 26.345 92.5586 26.3712 92.5454L49.981 78.9191C51.8451 77.8426 54.5035 78.9585 55.9147 81.4133C57.3127 83.8288 56.978 86.6381 55.1795 87.7473Z"
        fill="#5A6CFE" stroke="#191C20" stroke-width="1.5" stroke-linecap="round"
        stroke-linejoin="round" />
    <path
        d="M59.3409 85.3449L55.1795 87.7472C56.9779 86.638 57.3127 83.8287 55.9146 81.4132C54.5034 78.9584 51.8451 77.8425 49.981 78.919L54.2146 76.4707C56.0787 75.3943 58.737 76.5101 60.1482 78.9584C61.566 81.4132 61.205 84.2684 59.3409 85.3449Z"
        fill="#5A6CFE" stroke="#191C20" stroke-width="1.5" stroke-linecap="round"
        stroke-linejoin="round" />
    <path
        d="M55.1797 87.7473C56.9782 86.6381 57.3129 83.8288 55.9148 81.4133C54.5036 78.9585 51.8453 77.8426 49.9812 78.9191C40.6993 84.2761 31.4185 89.6362 22.1376 94.9937C20.2801 96.0702 19.9191 98.9254 21.3303 101.38C22.7481 103.829 25.4064 104.944 27.2639 103.868C36.5659 98.4887 45.8739 93.1199 55.1797 87.7473Z"
        fill="#5A6CFE" stroke="#191C20" stroke-width="1.5" stroke-linecap="round"
        stroke-linejoin="round" />
    <path
        d="M59.5907 117.258C59.5119 117.317 59.4266 117.369 59.3413 117.422C59.2822 117.455 59.2231 117.488 59.1641 117.52L59.5907 117.258Z"
        fill="#5A6CFE" stroke="#191C20" stroke-width="1.5" stroke-linecap="round"
        stroke-linejoin="round" />
    <path
        d="M31.4976 69.8479C31.3729 69.9201 31.2482 69.9792 31.1169 70.0317L31.1432 70.0842L27.264 72.2962C28.0648 71.8368 28.5899 71.036 28.813 70.0842C29.1084 68.8306 28.8787 67.3078 28.0713 65.9097C27.264 64.5116 26.0563 63.5533 24.8223 63.1792C23.8902 62.8969 22.9385 62.956 22.1377 63.4155L26.3713 60.9672C28.2354 59.8907 30.8872 61.0131 32.305 63.4614C33.7227 65.9097 33.3617 68.7715 31.4976 69.8479Z"
        fill="#5A6CFE" stroke="#191C20" stroke-width="1.5" stroke-linecap="round"
        stroke-linejoin="round" />
    <path
        d="M59.5903 117.258L59.1637 117.521H59.1571L55.2845 119.87L55.232 119.785C55.9671 119.326 56.4463 118.558 56.6563 117.658C56.9517 116.405 56.7219 114.882 55.9146 113.484C55.1072 112.086 53.8995 111.128 52.6655 110.753C51.7335 110.471 50.7817 110.53 49.981 110.99L54.2146 108.541C56.0787 107.465 58.737 108.581 60.1482 111.036C61.5003 113.372 61.2378 116.077 59.5903 117.258Z"
        fill="#5A6CFE" stroke="#191C20" stroke-width="1.5" stroke-linecap="round"
        stroke-linejoin="round" />
    <path
        d="M55.232 119.785C55.9672 119.326 56.4463 118.558 56.6564 117.658C56.9517 116.405 56.7222 114.882 55.9149 113.484C55.1075 112.086 53.8996 111.127 52.6656 110.753C51.7336 110.471 50.7818 110.53 49.981 110.99C48.1235 112.066 47.7625 114.921 49.1803 117.376C50.5915 119.824 53.2498 120.94 55.1073 119.87C55.1533 119.844 55.1927 119.818 55.232 119.785Z"
        fill="#5A6CFE" stroke="#191C20" stroke-width="1.5" stroke-linecap="round"
        stroke-linejoin="round" />
    <path
        d="M27.3893 72.2109C28.1244 71.7514 28.6036 70.9834 28.8136 70.0842C29.109 68.8305 28.8795 67.3077 28.0721 65.9097C27.2648 64.5116 26.0568 63.5533 24.8228 63.1791C23.8908 62.8969 22.939 62.956 22.1383 63.4154C20.2807 64.4919 19.9197 67.3471 21.3375 69.802C22.7487 72.2502 25.407 73.3661 27.2646 72.2962C27.3105 72.2699 27.3499 72.2437 27.3893 72.2109Z"
        fill="#5A6CFE" stroke="#191C20" stroke-width="1.5" stroke-linecap="round"
        stroke-linejoin="round" />
</svg>